<svg width="298" height="222" viewBox="0 0 298 222" fill="none" xmlns="http://www.w3.org/2000/svg">
<path d="M297.237 194.631H0V194.78H297.237V194.631Z" fill="#EBEBEB"/>
<path d="M267.454 204.196H247.765V204.345H267.454V204.196Z" fill="#EBEBEB"/>
<path d="M162.422 202.335H154.76V202.484H162.422V202.335Z" fill="#EBEBEB"/>
<path d="M207.87 202.965H191.736V203.114H207.87V202.965Z" fill="#EBEBEB"/>
<path d="M247.171 198.679H213.815V198.828H247.171V198.679Z" fill="#EBEBEB"/>
<path d="M46.9575 205.557H31.1861V205.706H46.9575V205.557Z" fill="#EBEBEB"/>
<path d="M65.9213 205.557H52.2484V205.706H65.9213V205.557Z" fill="#EBEBEB"/>
<path d="M114.026 202.264H77.8762V202.413H114.026V202.264Z" fill="#EBEBEB"/>
<path d="M140.89 168.117H26.1033C25.2041 168.116 24.3423 167.758 23.707 167.121C23.0717 166.485 22.7148 165.622 22.7148 164.723V3.36473C22.7227 2.47065 23.0829 1.61577 23.7174 0.985769C24.3518 0.355768 25.2092 0.0015316 26.1033 0H140.89C141.791 0 142.654 0.357629 143.291 0.994212C143.927 1.63079 144.285 2.49419 144.285 3.39445V164.723C144.285 165.623 143.927 166.487 143.291 167.123C142.654 167.76 141.791 168.117 140.89 168.117ZM26.1033 0.118895C25.2435 0.12047 24.4195 0.463134 23.812 1.07168C23.2046 1.68022 22.8635 2.50491 22.8635 3.36473V164.723C22.8635 165.583 23.2046 166.407 23.812 167.016C24.4195 167.625 25.2435 167.967 26.1033 167.969H140.89C141.751 167.967 142.575 167.625 143.184 167.016C143.792 166.408 144.135 165.583 144.136 164.723V3.36473C144.135 2.50436 143.792 1.67968 143.184 1.07131C142.575 0.462941 141.751 0.120467 140.89 0.118895H26.1033Z" fill="#EBEBEB"/>
<path d="M269.481 168.117H154.688C153.788 168.116 152.926 167.758 152.29 167.121C151.653 166.485 151.295 165.623 151.294 164.723V3.36473C151.303 2.47011 151.665 1.61523 152.3 0.985397C152.936 0.35556 153.794 0.00151489 154.688 0H269.481C270.374 0.00309394 271.23 0.358022 271.863 0.987855C272.497 1.61769 272.856 2.47168 272.864 3.36473V164.723C272.864 165.621 272.508 166.483 271.874 167.119C271.24 167.755 270.379 168.114 269.481 168.117ZM154.688 0.118895C153.828 0.120467 153.003 0.462941 152.395 1.07131C151.786 1.67968 151.444 2.50436 151.442 3.36473V164.723C151.444 165.583 151.786 166.408 152.395 167.016C153.003 167.625 153.828 167.967 154.688 167.969H269.481C270.342 167.967 271.166 167.625 271.775 167.016C272.383 166.408 272.725 165.583 272.727 164.723V3.36473C272.725 2.50436 272.383 1.67968 271.775 1.07131C271.166 0.462941 270.342 0.120467 269.481 0.118895H154.688Z" fill="#EBEBEB"/>
<path d="M38.5279 194.631H42.82L42.82 11.8895H38.5279L38.5279 194.631Z" fill="#E0E0E0"/>
<path d="M40.674 194.631H153.648L153.648 17.9651H40.674L40.674 194.631Z" fill="#F5F5F5"/>
<path d="M53.1698 125.702H101.025V50.8632L53.901 50.5779L53.1698 125.702Z" fill="#E0E0E0"/>
<path d="M53.8951 125.173H101.75L101.75 50.3401H53.8951L53.8951 125.173Z" fill="white"/>
<path d="M77.8286 88.6302C85.5178 88.6302 91.7512 82.3968 91.7512 74.7076C91.7512 67.0184 85.5178 60.785 77.8286 60.785C70.1393 60.785 63.906 67.0184 63.906 74.7076C63.906 82.3968 70.1393 88.6302 77.8286 88.6302Z" fill="#F5F5F5"/>
<path d="M81.0494 109.971C85.3445 108.192 87.3841 103.268 85.605 98.9728C83.8259 94.6776 78.9018 92.638 74.6067 94.4171C70.3116 96.1962 68.2719 101.12 70.051 105.415C71.8301 109.711 76.7542 111.75 81.0494 109.971Z" fill="#F5F5F5"/>
<path d="M254.619 194.631H258.911V11.8895H254.619L254.619 194.631Z" fill="#E0E0E0"/>
<path d="M230.573 14.2674H36.4116V41.744H230.573V14.2674Z" fill="#F0F0F0"/>
<path d="M222.583 21.4011H131.23V34.6103H222.583V21.4011Z" fill="white"/>
<path d="M44.4073 34.6103L123.698 34.6103V21.4011L44.4073 21.4011V34.6103Z" fill="white"/>
<path d="M230.573 41.744L260.826 41.744V14.2674L230.573 14.2674V41.744Z" fill="#E0E0E0"/>
<path d="M257.966 21.4011H245.06V34.6103H257.966V21.4011Z" fill="white"/>
<path d="M235.067 34.6103H243.996V21.4011H235.067V34.6103Z" fill="white"/>
<path d="M232.873 194.631H130V113.027C130 111.451 130.626 109.939 131.741 108.824C132.856 107.709 134.368 107.083 135.944 107.083L226.947 107.083C228.523 107.083 230.035 107.709 231.15 108.824C232.265 109.939 232.891 111.451 232.891 113.027V194.631H232.873Z" fill="#E0E0E0"/>
<path d="M220.942 194.631H118.063L118.063 113.027C118.063 111.451 118.689 109.939 119.804 108.824C120.919 107.709 122.431 107.083 124.007 107.083L215.016 107.083C216.592 107.083 218.104 107.709 219.219 108.824C220.334 109.939 220.96 111.451 220.96 113.027V194.631H220.942Z" fill="#E0E0E0"/>
<path opacity="0.3" d="M218.969 113.027V194.631H120.036V113.027C120.036 111.979 120.453 110.973 121.194 110.232C121.935 109.491 122.941 109.074 123.989 109.074H215.015C216.064 109.074 217.069 109.491 217.811 110.232C218.552 110.973 218.969 111.979 218.969 113.027Z" fill="white"/>
<path opacity="0.9" d="M218.963 113.027V194.649H121.088V113.027C121.088 111.979 121.505 110.973 122.246 110.232C122.988 109.491 123.993 109.074 125.042 109.074H215.015C216.063 109.076 217.067 109.493 217.807 110.234C218.547 110.975 218.963 111.98 218.963 113.027Z" fill="white"/>
<path d="M200.13 107.101H192.61L190.369 95.431H197.889L200.13 107.101Z" fill="#E0E0E0"/>
<path d="M204.463 80.9437H194.357C193.987 80.9523 193.629 81.0794 193.336 81.3061C193.043 81.5329 192.83 81.8475 192.729 82.2039L188.383 100.93C188.339 101.085 188.334 101.248 188.367 101.405C188.4 101.563 188.47 101.71 188.573 101.835C188.675 101.959 188.806 102.057 188.954 102.12C189.102 102.183 189.263 102.209 189.423 102.196H199.529C199.901 102.187 200.259 102.059 200.552 101.831C200.845 101.603 201.058 101.287 201.158 100.93L205.504 82.2039C205.546 82.0494 205.551 81.8869 205.517 81.7302C205.484 81.5735 205.413 81.4272 205.311 81.3036C205.209 81.18 205.079 81.0828 204.931 81.0201C204.784 80.9575 204.623 80.9313 204.463 80.9437Z" fill="#E6E6E6"/>
<path d="M199.839 99.9847H190.137C190.052 99.9914 189.967 99.9778 189.889 99.9448C189.811 99.9118 189.742 99.8606 189.687 99.7953C189.633 99.73 189.596 99.6526 189.578 99.5697C189.559 99.4868 189.562 99.4008 189.584 99.3189L193.537 82.2931C193.591 82.1044 193.703 81.9379 193.858 81.8181C194.013 81.6982 194.203 81.6313 194.399 81.6273H204.101C204.186 81.6205 204.27 81.6342 204.349 81.6672C204.427 81.7001 204.496 81.7514 204.55 81.8167C204.604 81.882 204.642 81.9593 204.66 82.0423C204.678 82.1252 204.676 82.2112 204.654 82.2931L200.701 99.3189C200.647 99.5075 200.535 99.674 200.379 99.7939C200.224 99.9138 200.035 99.9806 199.839 99.9847Z" fill="white"/>
<path d="M179.793 107.101H172.267L170.026 95.431H177.546L179.793 107.101Z" fill="#E0E0E0"/>
<path d="M186.213 78.7025H173.48C173.109 78.7112 172.751 78.8382 172.458 79.065C172.165 79.2918 171.952 79.6064 171.851 79.9628L166.982 100.93C166.94 101.085 166.935 101.249 166.969 101.406C167.003 101.563 167.074 101.71 167.177 101.834C167.279 101.959 167.41 102.056 167.558 102.119C167.707 102.182 167.868 102.209 168.028 102.196H180.756C181.127 102.187 181.486 102.059 181.779 101.831C182.072 101.603 182.284 101.287 182.385 100.93L187.26 79.9628C187.302 79.8078 187.307 79.6447 187.273 79.4875C187.239 79.3303 187.168 79.1836 187.065 79.0598C186.962 78.9361 186.831 78.839 186.683 78.7768C186.535 78.7146 186.373 78.6891 186.213 78.7025Z" fill="#E6E6E6"/>
<path d="M181.065 99.9847H168.742C168.657 99.9918 168.572 99.9783 168.494 99.9454C168.416 99.9124 168.347 99.861 168.293 99.7954C168.239 99.7299 168.202 99.6523 168.185 99.5693C168.168 99.4863 168.171 99.4003 168.195 99.3189L172.665 80.0519C172.719 79.8633 172.831 79.6968 172.986 79.5769C173.142 79.457 173.331 79.3902 173.527 79.3861H185.845C185.93 79.3779 186.015 79.3906 186.094 79.4231C186.173 79.4557 186.243 79.507 186.297 79.5726C186.352 79.6383 186.39 79.7163 186.407 79.7999C186.424 79.8834 186.421 79.9699 186.397 80.0519L181.909 99.3189C181.857 99.5047 181.747 99.6691 181.595 99.7887C181.444 99.9083 181.258 99.9769 181.065 99.9847Z" fill="white"/>
<path d="M156.656 107.101H149.136L146.895 95.431H154.415L156.656 107.101Z" fill="#E0E0E0"/>
<path d="M164.818 75.8966H148.583C148.213 75.9053 147.855 76.0323 147.561 76.2591C147.268 76.4858 147.056 76.8004 146.954 77.1569L141.431 100.936C141.389 101.091 141.385 101.254 141.419 101.412C141.452 101.569 141.524 101.716 141.626 101.84C141.729 101.964 141.86 102.062 142.008 102.125C142.156 102.188 142.317 102.214 142.478 102.202H158.725C159.096 102.193 159.454 102.065 159.748 101.837C160.041 101.609 160.253 101.293 160.354 100.936L165.87 77.1569C165.915 77.0012 165.92 76.837 165.887 76.6787C165.853 76.5203 165.781 76.3725 165.678 76.2483C165.574 76.124 165.441 76.027 165.292 75.9657C165.142 75.9044 164.979 75.8807 164.818 75.8966Z" fill="#E6E6E6"/>
<path d="M159.022 99.9847H143.197C143.112 99.9929 143.026 99.9801 142.948 99.9476C142.869 99.9151 142.799 99.8638 142.744 99.7981C142.69 99.7325 142.652 99.6545 142.635 99.5709C142.617 99.4874 142.621 99.4009 142.644 99.3189L147.769 77.246C147.822 77.0574 147.935 76.8908 148.09 76.771C148.245 76.6511 148.435 76.5842 148.631 76.5802H164.455C164.54 76.5731 164.625 76.5865 164.703 76.6195C164.781 76.6525 164.85 76.7039 164.904 76.7694C164.958 76.8349 164.995 76.9125 165.012 76.9956C165.029 77.0786 165.026 77.1645 165.002 77.246L159.914 99.3189C159.858 99.5119 159.741 99.6814 159.58 99.8016C159.419 99.9218 159.223 99.9861 159.022 99.9847Z" fill="white"/>
<path d="M200.13 125.63H126.801V131.575H200.13V125.63Z" fill="#F0F0F0"/>
<path d="M174.906 138.269H126.801V144.214H174.906V138.269Z" fill="#F0F0F0"/>
<path d="M189.566 150.907H126.801V156.852H189.566V150.907Z" fill="#F0F0F0"/>
<path d="M148.619 221.477C212.276 221.477 263.881 218.465 263.881 214.748C263.881 211.031 212.276 208.019 148.619 208.019C84.9608 208.019 33.3559 211.031 33.3559 214.748C33.3559 218.465 84.9608 221.477 148.619 221.477Z" fill="#F5F5F5"/>
<path d="M93.6 207.953L98.1715 206.895L96.3881 196.194L91.8106 197.259L93.6 207.953Z" fill="#CE7A63"/>
<path d="M98.2964 206.283L93.1542 207.472C93.0671 207.489 92.9902 207.54 92.9402 207.613C92.8902 207.686 92.8709 207.777 92.8867 207.864L93.5525 211.972C93.5757 212.077 93.6195 212.177 93.6814 212.266C93.7433 212.354 93.8221 212.43 93.9133 212.488C94.0044 212.546 94.1061 212.585 94.2125 212.604C94.3189 212.622 94.428 212.62 94.5334 212.596C96.3168 212.15 97.1491 211.847 99.4081 211.324C100.799 211.003 106.738 209.772 108.658 209.326C110.578 208.881 110.097 207.002 109.253 207.02C105.43 207.097 100.668 207.085 99.1465 206.378C98.8814 206.253 98.5825 206.22 98.2964 206.283Z" fill="#263238"/>
<path opacity="0.2" d="M91.8106 197.264L96.3881 196.2L97.3095 201.711L92.7321 202.775L91.8106 197.264Z" fill="black"/>
<path d="M84.9445 91.0498C84.9445 91.0498 90.9546 129.179 92.738 142.478C94.676 157.048 98.766 199.648 98.766 199.648L90.479 201.931C90.479 201.931 82.632 160.651 79.398 146.49C75.8847 131.123 68.2041 91.0498 68.2041 91.0498H84.9445Z" fill="#01213F"/>
<path opacity="0.5" d="M84.9445 91.0498C84.9445 91.0498 90.9546 129.179 92.738 142.478C94.676 157.048 98.766 199.648 98.766 199.648L90.479 201.931C90.479 201.931 82.632 160.651 79.398 146.49C75.8847 131.123 68.2041 91.0498 68.2041 91.0498H84.9445Z" fill="white"/>
<path opacity="0.3" d="M75.1119 104.443C78.2804 112.522 78.0843 128.508 76.7348 134.137C74.8265 124.893 72.6389 113.83 70.9565 105.234C71.5985 103.028 73.1858 99.527 75.1119 104.443Z" fill="black"/>
<path d="M90.2769 202.098L99.1524 199.654L99.0098 196.046L89.0107 199.494L90.2769 202.098Z" fill="#01213F"/>
<path d="M100.092 206.729C99.6789 206.812 99.2585 206.852 98.8374 206.847C98.8165 206.848 98.7959 206.843 98.7787 206.831C98.7616 206.819 98.7487 206.802 98.7422 206.782C98.7305 206.764 98.7242 206.744 98.7242 206.723C98.7242 206.701 98.7305 206.681 98.7422 206.663C98.8671 206.532 99.9609 205.349 100.567 205.439C100.636 205.447 100.702 205.473 100.757 205.515C100.812 205.557 100.856 205.612 100.882 205.676C100.935 205.767 100.962 205.869 100.962 205.974C100.962 206.078 100.935 206.18 100.882 206.271C100.683 206.514 100.402 206.676 100.092 206.729ZM99.0989 206.627C99.949 206.598 100.549 206.431 100.716 206.17C100.751 206.109 100.769 206.041 100.769 205.971C100.769 205.901 100.751 205.832 100.716 205.771C100.704 205.74 100.684 205.712 100.658 205.691C100.632 205.67 100.601 205.657 100.567 205.653C100.228 205.605 99.5507 206.164 99.0989 206.627Z" fill="#01213F"/>
<path d="M98.8611 206.841H98.8136C98.7956 206.837 98.7791 206.828 98.7655 206.816C98.752 206.803 98.7419 206.788 98.7363 206.77C98.7363 206.717 98.3201 205.427 98.6828 204.88C98.7283 204.808 98.7893 204.748 98.8614 204.704C98.9335 204.66 99.0147 204.632 99.0989 204.624C99.1902 204.605 99.2853 204.617 99.3685 204.66C99.4517 204.702 99.5181 204.771 99.5567 204.856C99.7766 205.332 99.307 206.437 98.9146 206.818C98.9006 206.832 98.8814 206.841 98.8611 206.841ZM99.0692 204.85C98.9843 204.873 98.9105 204.926 98.8611 204.999C98.6983 205.491 98.6983 206.022 98.8611 206.515C99.2108 206.072 99.3787 205.513 99.3307 204.951C99.3307 204.892 99.2535 204.826 99.093 204.844L99.0692 204.85Z" fill="#01213F"/>
<path d="M86.6031 55.3456C87.0549 56.594 87.5364 57.9553 88.0417 59.2453C88.547 60.5354 89.0523 61.8491 89.5933 63.1273C90.6081 65.6381 91.8 68.0737 93.1602 70.4155L93.6655 71.2062L93.8616 71.5094C93.8956 71.5705 93.9354 71.6283 93.9805 71.6818C94.0585 71.7958 94.1482 71.9014 94.248 71.9968C94.4794 72.0949 94.7371 72.1116 94.9793 72.0444C95.4613 71.9588 95.928 71.8026 96.3644 71.5807C98.4331 70.5998 100.651 68.7034 102.606 66.8843L105.442 68.971C104.674 70.3382 103.785 71.6335 102.785 72.841C101.74 74.1286 100.531 75.2738 99.1881 76.2473C98.4019 76.8087 97.5442 77.2625 96.6378 77.5968C95.498 78.0145 94.271 78.1372 93.071 77.9535C91.7591 77.7336 90.5412 77.1319 89.5695 76.2235C89.3597 76.0248 89.1612 75.8144 88.9751 75.5934L88.7016 75.2783L88.5173 75.0346L87.7623 74.0537C85.9681 71.5165 84.4175 68.8155 83.1314 65.9867C82.5012 64.6075 81.8949 63.2283 81.3479 61.8254C80.801 60.4224 80.2898 59.0492 79.832 57.5452L86.6031 55.3456Z" fill="#CE7A63"/>
<path d="M83.4286 50.5304C78.7798 49.4484 75.956 52.4148 77.353 58.2585C78.2177 61.5896 79.2777 64.8668 80.5275 68.0733C80.801 68.7926 81.0507 69.4346 81.2587 69.9518L91.8226 64.0665C90.6574 59.4475 86.5436 51.2616 83.4286 50.5304Z" fill="#263238"/>
<path opacity="0.3" d="M83.6307 56.053C80.8248 53.5503 83.6961 63.7039 84.8732 67.9425L87.9763 66.2126C87.6672 63.27 85.7886 57.9732 83.6307 56.053Z" fill="black"/>
<path d="M58.9243 209.963H63.6088L64.3043 199.113H59.6139L58.9243 209.963Z" fill="#CE7A63"/>
<path d="M63.8585 209.422H58.5974C58.5532 209.419 58.5089 209.426 58.4672 209.44C58.4255 209.455 58.3872 209.478 58.3546 209.508C58.3219 209.538 58.2956 209.574 58.277 209.615C58.2585 209.655 58.2482 209.698 58.2466 209.743L57.9553 213.904C57.9538 214.012 57.9736 214.12 58.0138 214.22C58.0539 214.321 58.1136 214.412 58.1893 214.49C58.265 214.567 58.3553 214.629 58.4549 214.671C58.5545 214.713 58.6615 214.735 58.7698 214.736C60.6008 214.706 61.4806 214.599 63.7931 214.599C65.2198 214.599 71.2716 214.748 73.2333 214.748C75.1951 214.748 75.1594 212.804 74.3272 212.626C70.5998 211.835 66.0045 210.747 64.661 209.707C64.4322 209.526 64.1501 209.426 63.8585 209.422Z" fill="#263238"/>
<path opacity="0.2" d="M59.6139 199.119H64.3043L63.9417 204.713H59.2572L59.6139 199.119Z" fill="black"/>
<path d="M75.7955 91.0498C75.7955 91.0498 75.9619 126.605 75.094 140.017C74.1488 154.706 65.9867 203.358 65.9867 203.358H57.3846C57.3846 203.358 61.647 155.889 61.2428 141.348C60.8088 125.565 59.8933 91.0498 59.8933 91.0498H75.7955Z" fill="#01213F"/>
<path opacity="0.5" d="M75.7955 91.0498C75.7955 91.0498 75.9619 126.605 75.094 140.017C74.1488 154.706 65.9867 203.358 65.9867 203.358H57.3846C57.3846 203.358 61.647 155.889 61.2428 141.348C60.8088 125.565 59.8933 91.0498 59.8933 91.0498H75.7955Z" fill="white"/>
<path d="M57.0339 203.358H66.3077L66.8487 200.106L56.6118 200.611L57.0339 203.358Z" fill="#01213F"/>
<path d="M65.5111 210.236C65.0903 210.225 64.6718 210.169 64.2627 210.069C64.243 210.065 64.2251 210.055 64.2113 210.04C64.1975 210.025 64.1885 210.006 64.1854 209.986C64.1718 209.965 64.1661 209.94 64.1694 209.915C64.1726 209.89 64.1846 209.867 64.2033 209.85C64.3578 209.748 65.6894 208.839 66.2601 209.065C66.3249 209.09 66.3818 209.132 66.4256 209.187C66.4693 209.241 66.4983 209.305 66.5098 209.374C66.5421 209.477 66.5459 209.586 66.5208 209.691C66.4956 209.796 66.4425 209.892 66.3671 209.968C66.124 210.159 65.8195 210.254 65.5111 210.236ZM64.5659 209.909C65.4041 210.081 66.0224 210.052 66.2423 209.838C66.2876 209.784 66.3185 209.72 66.332 209.652C66.3455 209.583 66.3413 209.512 66.3196 209.445C66.3156 209.411 66.3024 209.379 66.2815 209.352C66.2605 209.324 66.2326 209.303 66.2007 209.291C65.8916 209.172 65.1128 209.564 64.5659 209.909Z" fill="#01213F"/>
<path d="M64.2865 210.075H64.2389C64.2227 210.066 64.2089 210.053 64.1986 210.038C64.1883 210.022 64.1817 210.005 64.1795 209.986C64.1795 209.927 64.0844 208.577 64.56 208.126C64.6202 208.066 64.6934 208.021 64.7738 207.994C64.8542 207.967 64.9397 207.959 65.0236 207.971C65.1169 207.974 65.2063 208.009 65.2774 208.07C65.3486 208.13 65.3974 208.212 65.416 208.304C65.5171 208.815 64.8215 209.79 64.3459 210.087C64.3254 210.09 64.3046 210.085 64.2865 210.075ZM64.9464 208.173C64.9023 208.172 64.8585 208.18 64.8176 208.196C64.7767 208.212 64.7396 208.237 64.7086 208.268C64.4469 208.719 64.3346 209.242 64.3876 209.76C64.7977 209.416 65.2733 208.672 65.202 208.334C65.202 208.274 65.1544 208.197 64.9939 208.179L64.9464 208.173Z" fill="#01213F"/>
<path d="M84.9445 91.0498H59.8933C59.7328 88.8086 60.3095 81.5382 59.9944 72.2644C59.8107 65.3971 59.031 58.5587 57.6641 51.8263C57.557 51.321 57.4441 50.8217 57.3311 50.3164C57.3311 50.3164 58.6033 50.0607 60.4224 49.7932C61.9383 49.5733 63.8347 49.3414 65.6895 49.2582C69.2355 49.053 72.7905 49.053 76.3365 49.2582C77.9713 49.4068 79.5704 49.6803 80.8426 49.924C82.4715 50.251 83.4286 50.5185 83.4286 50.5185C83.4286 50.5185 89.4922 64.7026 84.9445 91.0498Z" fill="#263238"/>
<path d="M75.7301 64.3994C75.6686 64.3992 75.6086 64.3805 75.5577 64.3459C75.4567 64.2746 65.1782 56.9209 61.5341 49.7397C61.4988 49.6695 61.4928 49.5882 61.5173 49.5136C61.5418 49.4389 61.5948 49.377 61.6648 49.3414C61.6994 49.3231 61.7374 49.312 61.7764 49.3087C61.8153 49.3054 61.8546 49.31 61.8918 49.3222C61.9289 49.3344 61.9633 49.354 61.9927 49.3798C62.0222 49.4055 62.0461 49.437 62.0631 49.4722C65.63 56.5226 75.8014 63.7871 75.9025 63.8644C75.9658 63.9098 76.0087 63.9782 76.022 64.0549C76.0353 64.1316 76.018 64.2105 75.9738 64.2746C75.9459 64.3131 75.9092 64.3444 75.8669 64.3661C75.8245 64.3878 75.7777 64.3992 75.7301 64.3994Z" fill="#01213F"/>
<path d="M75.7301 64.3995C75.6686 64.3992 75.6086 64.3806 75.5577 64.346C75.5258 64.324 75.4985 64.2959 75.4776 64.2632C75.4567 64.2306 75.4425 64.1941 75.4358 64.1559C75.4292 64.1177 75.4302 64.0785 75.4389 64.0407C75.4476 64.0029 75.4637 63.9672 75.4864 63.9358C78.0448 59.6165 79.0692 54.5596 78.3934 49.5852C78.3848 49.5074 78.4066 49.4294 78.4543 49.3673C78.5019 49.3053 78.5717 49.2641 78.649 49.2523C78.6881 49.2473 78.7278 49.2501 78.7657 49.2606C78.8037 49.2711 78.8392 49.289 78.8702 49.3134C78.9012 49.3377 78.927 49.368 78.9462 49.4024C78.9654 49.4368 78.9775 49.4747 78.9819 49.5138C79.6764 54.6326 78.6161 59.8358 75.9739 64.2746C75.9466 64.3138 75.9101 64.3457 75.8676 64.3675C75.8251 64.3892 75.7779 64.4002 75.7301 64.3995Z" fill="#01213F"/>
<path d="M79.8795 73.2928H72.942L72.2168 63.3175H79.1543L79.8795 73.2928Z" fill="#01213F"/>
<path d="M79.5645 72.7399H73.4176L72.7578 63.6742H78.9106L79.5645 72.7399Z" fill="white"/>
<path d="M76.1225 68.2517H73.5484L73.3047 64.9702H75.8847L76.1225 68.2517Z" fill="#01213F"/>
<path d="M78.643 69.6189H73.6435L73.6078 69.1077H78.6074L78.643 69.6189Z" fill="#01213F"/>
<path d="M78.7263 70.7663H73.7267L73.6911 70.261H78.6906L78.7263 70.7663Z" fill="#01213F"/>
<path d="M78.3458 71.9195H73.81L73.7743 71.4142H78.3101L78.3458 71.9195Z" fill="#01213F"/>
<path opacity="0.3" d="M59.9944 72.2644C59.811 65.399 59.0313 58.5626 57.6641 51.8323C59.3405 51.6837 62.1999 51.8323 62.6576 54.555C63.1451 57.4619 62.4199 64.2984 59.9944 72.2644Z" fill="black"/>
<path d="M62.2296 56.2611L59.7209 64.8988L58.4606 69.2206L57.2717 73.5306L57.1944 73.7981L57.1587 73.9289V74.0002C57.1685 73.9412 57.1685 73.8809 57.1587 73.8219C57.1112 73.7386 57.1587 73.7267 57.1587 73.8219C57.2839 74.2038 57.4862 74.5559 57.7532 74.8563C58.6054 75.8339 59.5623 76.715 60.6067 77.4838C62.9443 79.2256 65.3775 80.8352 67.8949 82.305L66.5633 85.5627C65.032 85.1425 63.5256 84.6364 62.0513 84.0468C60.5557 83.4519 59.0967 82.7691 57.6819 82.0018C56.1348 81.1782 54.6985 80.1615 53.4076 78.976C52.5868 78.2112 51.9102 77.3051 51.4102 76.3008C51.0766 75.6132 50.875 74.8692 50.8157 74.1072C50.7873 73.6682 50.8092 73.2274 50.8811 72.7934L51.0059 72.1276C51.5528 69.0661 52.1949 66.058 52.9677 63.0738C53.7405 60.0895 54.5431 57.129 55.4942 54.1864L62.2296 56.2611Z" fill="#CE7A63"/>
<path d="M57.3311 50.3163C54.2101 51.0416 50.7087 59.2632 49.4722 63.8882C49.2701 64.6729 49.1036 65.3506 48.9788 65.8678C48.8123 66.5514 48.7231 66.9616 48.7231 66.9616L59.1978 69.934C59.4118 69.4168 59.6734 68.7451 59.9528 68.0555C61.2544 64.8576 62.368 61.5864 63.2878 58.2585C64.7977 52.4208 61.9978 49.2344 57.3311 50.3163Z" fill="#263238"/>
<path d="M75.8312 49.2166C72.7459 48.4854 72.2168 46.5712 72.4427 44.4608C72.4945 43.9327 72.5798 43.4086 72.6983 42.8914L68.8461 39.6693L66.0164 37.2914C66.7773 40.7215 67.6156 46.9695 65.2793 49.2582C66.2097 50.6302 67.478 51.7394 68.9618 52.4787C70.4456 53.218 72.0949 53.5625 73.7505 53.479C76.4138 50.5958 75.8312 49.2166 75.8312 49.2166Z" fill="#CE7A63"/>
<path d="M63.3948 49.2403C64.0593 49.0865 64.7322 48.9714 65.41 48.8955C66.5336 50.8097 71.3548 53.5146 72.9896 53.5146C72.9896 53.5146 71.3548 54.228 70.9446 56.808C68.4359 55.3991 63.6088 51.7906 63.3948 49.2403Z" fill="white"/>
<path d="M76.9963 49.2582C76.5266 49.1173 76.0347 49.0649 75.5458 49.1036C75.5815 50.9762 74.993 51.8441 74.0834 53.1282C74.7327 53.3549 75.3027 53.7646 75.7246 54.3077C76.1465 54.8509 76.4023 55.5045 76.4613 56.1898C78.322 54.222 77.6978 50.6671 76.9963 49.2582Z" fill="white"/>
<path opacity="0.2" d="M72.6983 42.8973C72.5798 43.4145 72.4945 43.9387 72.4427 44.4667C70.9981 44.1754 68.8164 42.8854 68.6202 41.2566C68.6306 40.7222 68.7065 40.1912 68.8461 39.6753L72.6983 42.8973Z" fill="black"/>
<path d="M64.2033 32.1017C64.9404 36.7088 65.1425 39.4375 67.7107 41.6489C71.5688 44.972 77.0677 42.4515 77.7157 37.7551C78.3101 33.5284 76.9964 26.7038 72.2941 25.182C71.277 24.8302 70.1856 24.7506 69.1283 24.951C68.071 25.1514 67.0844 25.6248 66.2666 26.3242C65.4487 27.0237 64.828 27.9249 64.4661 28.9384C64.1041 29.9518 64.0135 31.0424 64.2033 32.1017Z" fill="#CE7A63"/>
<path d="M65.8618 37.1963C67.4788 34.2953 68.4359 30.8295 66.7476 29.2957C69.0244 29.2957 71.7174 28.4338 72.6923 27.5777C74.4758 28.404 76.4791 28.2911 77.2995 26.3888C77.9891 24.8134 76.9904 22.6911 74.2736 22.8576C69.9459 19.4215 62.3842 20.1468 64.7621 23.0894C58.5379 22.6257 57.8424 26.0618 60.2143 27.2508C56.4751 29.5276 57.2717 35.2702 65.8618 37.1963Z" fill="#263238"/>
<path d="M62.9192 36.6316C63.6022 37.5563 64.5859 38.2142 65.7013 38.4923C67.1221 38.8073 67.4848 37.4876 66.8903 36.1679C66.2958 34.9789 64.8453 33.3798 63.5494 33.6592C62.2534 33.9386 62.0513 35.4664 62.9192 36.6316Z" fill="#CE7A63"/>
<path d="M71.3369 32.8864C71.3726 33.2668 71.6045 33.5581 71.8482 33.5403C72.0919 33.5225 72.2643 33.2014 72.2287 32.8269C72.193 32.4524 71.9611 32.1552 71.7115 32.173C71.4618 32.1908 71.3369 32.5119 71.3369 32.8864Z" fill="#263238"/>
<path d="M75.6112 32.5891C75.6529 32.9636 75.8788 33.2549 76.1225 33.2371C76.3662 33.2193 76.5386 32.9042 76.503 32.5237C76.4673 32.1433 76.2354 31.8579 75.9917 31.8757C75.748 31.8936 75.5756 32.2146 75.6112 32.5891Z" fill="#263238"/>
<path d="M74.3094 32.8685C74.8726 33.9912 75.5844 35.033 76.4257 35.9657C76.1819 36.1714 75.8952 36.3197 75.5866 36.4C75.278 36.4802 74.9553 36.4903 74.6423 36.4294L74.3094 32.8685Z" fill="#BA4D3C"/>
<path d="M73.1917 37.553C72.7557 37.5383 72.3273 37.4348 71.9327 37.2488C71.5381 37.0627 71.1857 36.7981 70.897 36.471C70.8864 36.4605 70.878 36.448 70.8723 36.4342C70.8665 36.4205 70.8636 36.4057 70.8636 36.3908C70.8636 36.3758 70.8665 36.3611 70.8723 36.3473C70.878 36.3335 70.8864 36.321 70.897 36.3105C70.918 36.2909 70.9456 36.2799 70.9743 36.2799C71.003 36.2799 71.0306 36.2909 71.0516 36.3105C71.369 36.6631 71.7642 36.9369 72.2059 37.1102C72.6475 37.2836 73.1234 37.3517 73.5959 37.3092C73.611 37.3076 73.6262 37.3091 73.6405 37.3137C73.6549 37.3183 73.6682 37.3259 73.6794 37.336C73.6906 37.3461 73.6996 37.3585 73.7057 37.3723C73.7118 37.3862 73.7149 37.4011 73.7148 37.4162C73.7165 37.4305 73.7152 37.4449 73.7108 37.4586C73.7065 37.4722 73.6993 37.4848 73.6898 37.4955C73.6802 37.5062 73.6685 37.5147 73.6554 37.5205C73.6423 37.5263 73.6281 37.5293 73.6138 37.5292C73.4737 37.5452 73.3327 37.5532 73.1917 37.553Z" fill="#263238"/>
<path d="M69.9102 31.6082C69.8723 31.6045 69.8358 31.5923 69.8032 31.5726C69.7786 31.5574 69.7572 31.5375 69.7403 31.514C69.7234 31.4905 69.7113 31.4639 69.7046 31.4358C69.698 31.4076 69.697 31.3784 69.7017 31.3499C69.7064 31.3213 69.7166 31.294 69.7319 31.2694C69.9114 30.9682 70.1617 30.7155 70.4611 30.5332C70.7605 30.3508 71.1 30.2444 71.4499 30.2231C71.5082 30.2231 71.5642 30.2463 71.6054 30.2875C71.6467 30.3288 71.6699 30.3847 71.6699 30.4431C71.6699 30.503 71.6461 30.5604 71.6037 30.6028C71.5613 30.6452 71.5039 30.669 71.444 30.669C71.1705 30.69 70.9062 30.7766 70.6734 30.9215C70.4405 31.0664 70.246 31.2652 70.1064 31.5012C70.0858 31.5346 70.0569 31.5619 70.0225 31.5807C69.9881 31.5995 69.9494 31.6089 69.9102 31.6082Z" fill="#263238"/>
<path d="M77.2817 30.9959C77.2455 30.9942 77.2102 30.9835 77.1791 30.9648C77.148 30.9462 77.122 30.9201 77.1034 30.8889C76.9641 30.6427 76.7699 30.432 76.5358 30.2732C76.3017 30.1144 76.0342 30.0118 75.7539 29.9734C75.7245 29.9719 75.6956 29.9646 75.6691 29.9517C75.6426 29.9388 75.6189 29.9208 75.5995 29.8986C75.5801 29.8764 75.5654 29.8506 75.5561 29.8226C75.5469 29.7946 75.5434 29.765 75.5459 29.7356C75.5504 29.6778 75.577 29.624 75.6202 29.5853C75.6633 29.5465 75.7197 29.5259 75.7777 29.5276C76.1306 29.5692 76.4689 29.6931 76.7652 29.8893C77.0615 30.0855 77.3077 30.3484 77.4838 30.6571C77.4988 30.682 77.5087 30.7097 77.513 30.7385C77.5172 30.7673 77.5157 30.7966 77.5085 30.8248C77.5013 30.853 77.4886 30.8795 77.4711 30.9028C77.4536 30.926 77.4317 30.9456 77.4066 30.9603C77.3688 30.983 77.3257 30.9953 77.2817 30.9959Z" fill="#263238"/>
<path d="M66.6406 82.0672L72.2465 81.4728L69.3098 86.6031C69.3098 86.6031 65.0653 86.1751 65.4814 84.0171L66.6406 82.0672Z" fill="#CE7A63"/>
<path d="M76.3068 82.846L73.5306 87.2808L69.3217 86.5852L72.2584 81.4549L76.3068 82.846Z" fill="#CE7A63"/>
<path d="M104.176 69.6665L108.729 68.6975L105.394 64.7205C105.394 64.7205 101.233 66.4207 102.422 68.2873L104.176 69.6665Z" fill="#CE7A63"/>
<path d="M111.315 66.3434L108.331 62.2118L105.394 64.7205L108.729 68.6975L111.315 66.3434Z" fill="#CE7A63"/>
<path d="M76.1879 105.519H143.572C145.533 105.519 147.414 106.298 148.801 107.685C150.188 109.072 150.967 110.953 150.967 112.915V214.748H68.7926V112.915C68.7926 110.953 69.5717 109.072 70.9586 107.685C72.3455 106.298 74.2265 105.519 76.1879 105.519Z" fill="#01213F"/>
<path d="M167.939 112.915H167.345V126.558H167.939V112.915Z" fill="#01213F"/>
<path d="M167.939 129.994H167.345V134.09H167.939V129.994Z" fill="#01213F"/>
<path d="M91.0854 105.519H158.463C160.425 105.519 162.306 106.298 163.692 107.685C165.079 109.072 165.858 110.953 165.858 112.915V214.748H83.6902V112.915C83.6902 110.953 84.4693 109.072 85.8562 107.685C87.2431 106.298 89.1241 105.519 91.0854 105.519Z" fill="#01213F"/>
<path opacity="0.3" d="M163.391 112.909V214.742H86.1513V112.909C86.1513 111.602 86.6705 110.348 87.5947 109.424C88.5189 108.5 89.7724 107.98 91.0795 107.98H158.463C159.77 107.98 161.024 108.5 161.948 109.424C162.872 110.348 163.391 111.602 163.391 112.909Z" fill="white"/>
<path opacity="0.9" d="M162.084 112.914V214.748H86.1513V112.914C86.1521 112.267 86.2805 111.626 86.5293 111.028C86.7781 110.43 87.1423 109.887 87.6011 109.429C88.0599 108.972 88.6043 108.61 89.2032 108.363C89.8021 108.117 90.4437 107.991 91.0914 107.992H157.155C158.461 107.992 159.714 108.511 160.638 109.434C161.562 110.357 162.082 111.608 162.084 112.914Z" fill="white"/>
<path d="M116.767 90.158H92.6013C90.1849 90.158 88.226 92.1169 88.226 94.5334V101.144C88.226 103.56 90.1849 105.519 92.6013 105.519H116.767C119.183 105.519 121.142 103.56 121.142 101.144V94.5334C121.142 92.1169 119.183 90.158 116.767 90.158Z" fill="#01213F"/>
<path d="M116.125 91.0259H99.6459C97.5282 91.0259 95.8115 92.7426 95.8115 94.8603V100.817C95.8115 102.935 97.5282 104.651 99.6459 104.651H116.125C118.242 104.651 119.959 102.935 119.959 100.817V94.8603C119.959 92.7426 118.242 91.0259 116.125 91.0259Z" fill="#263238"/>
<path d="M91.0616 94.8544C91.0616 95.0483 90.9846 95.2343 90.8475 95.3714C90.7104 95.5085 90.5244 95.5856 90.3304 95.5856C90.1365 95.5856 89.9505 95.5085 89.8134 95.3714C89.6763 95.2343 89.5992 95.0483 89.5992 94.8544C89.5992 94.6604 89.6763 94.4744 89.8134 94.3373C89.9505 94.2002 90.1365 94.1232 90.3304 94.1232C90.5244 94.1232 90.7104 94.2002 90.8475 94.3373C90.9846 94.4744 91.0616 94.6604 91.0616 94.8544Z" fill="white"/>
<path d="M91.0616 97.1847C91.0616 97.3293 91.0188 97.4707 90.9384 97.5909C90.8581 97.7112 90.7439 97.8049 90.6103 97.8602C90.4767 97.9156 90.3296 97.9301 90.1878 97.9019C90.046 97.8736 89.9157 97.804 89.8134 97.7017C89.7111 97.5995 89.6415 97.4692 89.6133 97.3273C89.5851 97.1855 89.5996 97.0385 89.6549 96.9049C89.7102 96.7713 89.804 96.6571 89.9242 96.5767C90.0445 96.4964 90.1858 96.4535 90.3304 96.4535C90.5239 96.455 90.709 96.5326 90.8458 96.6694C90.9826 96.8062 91.0601 96.9912 91.0616 97.1847Z" fill="white"/>
<path opacity="0.2" d="M141.937 81.1755H130.576L132.485 105.519H143.845L141.937 81.1755Z" fill="#01213F"/>
<path d="M142.632 79.0889H131.272L133.18 103.433H144.541L142.632 79.0889Z" fill="#01213F"/>
<path opacity="0.6" d="M142.918 94.6225H133.424L132.277 80.0163H141.77L142.918 94.6225Z" fill="white"/>
<path opacity="0.6" d="M143.536 102.505H134.036L133.596 96.9053H143.096L143.536 102.505Z" fill="white"/>
<path d="M143.007 78.9522L131.646 78.9284L133.507 103.421L144.868 103.445L143.007 78.9522Z" fill="#01213F"/>
<path opacity="0.6" d="M143.256 94.5809L133.763 94.5571L132.651 79.8677L142.145 79.8855L143.256 94.5809Z" fill="white"/>
<path opacity="0.6" d="M143.863 102.511L134.363 102.493L133.935 96.8577L143.435 96.8756L143.863 102.511Z" fill="white"/>
<path d="M143.316 78.643L131.956 78.6193L133.816 103.409L145.177 103.433L143.316 78.643Z" fill="#01213F"/>
<path opacity="0.6" d="M143.572 94.462L134.072 94.4382L132.96 79.5645L142.46 79.5883L143.572 94.462Z" fill="white"/>
<path opacity="0.6" d="M144.178 102.487L134.672 102.464L134.244 96.7626L143.75 96.7805L144.178 102.487Z" fill="white"/>
<path opacity="0.4" d="M129.619 81.1755H130.576L132.485 105.519H131.533L129.619 81.1755Z" fill="#01213F"/>
<path d="M228.147 64.5302C228.427 65.1782 228.635 65.7192 228.843 66.3136C229.051 66.9081 229.247 67.455 229.437 68.0257C229.818 69.1671 230.151 70.3145 230.466 71.4618C231.06 73.7684 231.589 76.0868 232 78.4231L232.154 79.297L232.19 79.5169L232.231 79.7844C232.27 80.0263 232.292 80.2707 232.297 80.5156C232.313 81.382 232.164 82.2435 231.857 83.054C231.351 84.3571 230.625 85.5636 229.711 86.6209C228.092 88.5122 226.196 90.1476 224.087 91.4718L222.405 89.403C223.869 87.7897 225.186 86.0489 226.34 84.2014C226.833 83.4151 227.206 82.5595 227.446 81.663C227.517 81.3733 227.533 81.0728 227.493 80.7772L227.155 79.4634C226.56 77.2639 225.966 75.0821 225.312 72.9242C224.991 71.8482 224.634 70.7781 224.289 69.72C224.117 69.1909 223.933 68.6618 223.748 68.1446L223.195 66.6584L228.147 64.5302Z" fill="#B55B52"/>
<path d="M224.676 90.6455L226.299 94.135L224.069 95.4369C224.069 95.4369 219.7 89.0582 222.993 88.8501L224.676 90.6455Z" fill="#B55B52"/>
<path d="M215.699 209.677C216.168 209.668 216.635 209.606 217.09 209.493C217.114 209.487 217.136 209.475 217.153 209.457C217.17 209.439 217.181 209.416 217.185 209.392C217.189 209.368 217.187 209.344 217.177 209.321C217.168 209.299 217.152 209.28 217.132 209.267C216.954 209.148 215.348 208.114 214.754 208.393C214.685 208.424 214.627 208.473 214.584 208.535C214.541 208.597 214.515 208.669 214.51 208.744C214.485 208.862 214.49 208.985 214.525 209.1C214.561 209.216 214.625 209.32 214.712 209.404C214.999 209.608 215.348 209.705 215.699 209.677ZM216.739 209.314C215.824 209.493 215.134 209.463 214.867 209.219C214.81 209.163 214.768 209.093 214.745 209.016C214.722 208.939 214.719 208.858 214.736 208.779C214.737 208.745 214.748 208.712 214.767 208.684C214.786 208.656 214.812 208.633 214.843 208.619C215.164 208.476 216.086 208.916 216.739 209.314Z" fill="#01213F"/>
<path d="M217.061 209.493C217.082 209.499 217.105 209.499 217.126 209.493C217.145 209.482 217.16 209.466 217.171 209.448C217.181 209.429 217.186 209.407 217.185 209.386C217.185 209.32 217.185 207.805 216.591 207.299C216.521 207.234 216.437 207.185 216.345 207.157C216.254 207.128 216.157 207.12 216.062 207.133C215.962 207.135 215.866 207.171 215.789 207.234C215.713 207.298 215.66 207.386 215.64 207.483C215.521 208.078 216.478 209.213 216.983 209.499L217.061 209.493ZM216.169 207.359C216.22 207.359 216.27 207.369 216.317 207.388C216.364 207.407 216.406 207.436 216.442 207.472C216.781 207.769 216.9 208.625 216.93 209.13C216.43 208.726 215.83 207.876 215.907 207.513C215.907 207.454 215.949 207.382 216.109 207.365L216.169 207.359Z" fill="#01213F"/>
<path d="M216.056 46.369C215.461 49.4959 214.154 55.8271 216.335 57.9078C216.335 57.9078 215.485 61.0822 209.677 61.0822C203.292 61.0822 206.627 57.9078 206.627 57.9078C210.111 57.0755 210.022 54.4895 209.416 52.0641L216.056 46.369Z" fill="#B55B52"/>
<path d="M204.648 60.3629C203.768 60.4759 205.837 57.6759 206.188 57.3906C207.008 56.7307 217.714 56.1719 217.661 57.8067C217.625 58.5082 217.37 59.8755 216.906 60.3213C216.442 60.7672 212.34 59.2097 204.648 60.3629Z" fill="#263238"/>
<path d="M205.766 38.8192C205.726 38.8154 205.688 38.8021 205.655 38.7803C205.622 38.7586 205.594 38.729 205.575 38.6943C205.429 38.4178 205.22 38.1796 204.965 37.9989C204.71 37.8181 204.416 37.7 204.107 37.654C204.074 37.6525 204.042 37.6445 204.012 37.6305C203.983 37.6165 203.956 37.5968 203.934 37.5725C203.912 37.5483 203.895 37.5198 203.884 37.4889C203.872 37.458 203.868 37.4252 203.869 37.3924C203.874 37.3257 203.904 37.2634 203.954 37.2189C204.004 37.1745 204.07 37.1514 204.137 37.1546C204.529 37.2067 204.904 37.3514 205.229 37.5767C205.555 37.802 205.822 38.1016 206.009 38.4506C206.026 38.4789 206.037 38.5103 206.041 38.5429C206.045 38.5755 206.043 38.6087 206.034 38.6403C206.025 38.672 206.01 38.7015 205.989 38.7271C205.969 38.7528 205.943 38.774 205.914 38.7895C205.869 38.8162 205.817 38.8267 205.766 38.8192Z" fill="#263238"/>
<path d="M204.036 41.6429C203.585 42.5804 203.009 43.4523 202.323 44.2349C202.528 44.4041 202.767 44.5268 203.023 44.5945C203.28 44.6623 203.548 44.6734 203.81 44.6272L204.036 41.6429Z" fill="#A02724"/>
<path d="M204.499 40.9415C204.47 41.3635 204.22 41.6905 203.94 41.6727C203.661 41.6548 203.465 41.2922 203.495 40.8701C203.524 40.4481 203.78 40.1151 204.053 40.1389C204.327 40.1627 204.499 40.5194 204.499 40.9415Z" fill="#263238"/>
<path d="M204.148 40.1686L203.15 39.8C203.15 39.8 203.613 40.6323 204.148 40.1686Z" fill="#263238"/>
<path d="M223.19 209.368H217.923L218.333 197.175H223.6L223.19 209.368Z" fill="#B55B52"/>
<path d="M217.5 208.762H223.445C223.546 208.759 223.645 208.794 223.722 208.86C223.798 208.926 223.848 209.018 223.861 209.118L224.539 213.803C224.552 213.921 224.539 214.04 224.502 214.153C224.465 214.266 224.405 214.37 224.326 214.458C224.246 214.546 224.149 214.617 224.04 214.664C223.931 214.712 223.814 214.737 223.695 214.736C221.632 214.7 220.639 214.582 218.035 214.582C216.436 214.582 214.094 214.748 211.883 214.748C209.671 214.748 209.558 212.56 210.48 212.37C214.605 211.484 215.235 210.26 216.644 209.089C216.885 208.886 217.186 208.771 217.5 208.762Z" fill="#263238"/>
<g opacity="0.2">
<path d="M223.6 197.175H218.333L218.095 204.244H223.362L223.6 197.175Z" fill="black"/>
</g>
<path d="M200.338 66.2126C199.292 68.8401 198.168 71.3429 196.902 73.8397C195.658 76.3828 194.248 78.8413 192.681 81.1993C192.259 81.7937 191.843 82.3882 191.367 82.9827C191.118 83.2859 190.91 83.5772 190.624 83.8803C190.29 84.2505 189.921 84.5888 189.524 84.891C188.748 85.4603 187.874 85.8815 186.944 86.1334C186.104 86.3648 185.236 86.4788 184.364 86.4723C182.803 86.4546 181.254 86.1898 179.775 85.6875C179.074 85.4609 178.387 85.1929 177.718 84.885C177.041 84.5832 176.382 84.2418 175.745 83.8625L176.868 81.443C179.276 82.085 181.963 82.519 184.109 82.2099C185.012 82.1261 185.866 81.7624 186.552 81.1695C186.682 81.0393 186.803 80.9002 186.915 80.7534L187.426 80.0341C187.777 79.5407 188.11 78.9938 188.437 78.4587C189.096 77.3649 189.727 76.2235 190.327 75.0524C190.927 73.8813 191.516 72.6745 192.11 71.4856C193.234 69.1077 194.34 66.6109 195.362 64.1973L200.338 66.2126Z" fill="#B55B52"/>
<path d="M198.269 59.0373C195.653 59.6733 192.431 66.8605 192.431 66.8605L198.661 74.8384C198.661 74.8384 205.094 65.737 204.238 62.9489C203.34 60.0419 201.444 58.2585 198.269 59.0373Z" fill="#01213F"/>
<path d="M178.087 81.8175L174.181 80.587L173.319 84.6888C173.319 84.6888 177.159 85.4379 178.669 83.7615L178.087 81.8175Z" fill="#B55B52"/>
<path d="M170.537 81.0566L171.28 84.1776L173.307 84.6888L174.169 80.587L170.537 81.0566Z" fill="#B55B52"/>
<path d="M218.82 40.5551C218.113 45.7329 217.923 47.9384 215.093 50.4115C210.842 54.1329 204.636 52.1295 203.798 46.8446C203.031 42.0888 204.315 34.4201 209.564 32.7318C210.718 32.358 211.949 32.2847 213.139 32.5189C214.33 32.7531 215.441 33.287 216.367 34.0701C217.294 34.8533 218.005 35.8598 218.435 36.9945C218.864 38.1293 218.996 39.3547 218.82 40.5551Z" fill="#B55B52"/>
<path d="M207.127 43.4977C211.235 50.679 213.315 51.6539 216.49 52.8428C216.49 52.8428 217.952 48.4259 221.121 45.6735C225.389 41.9759 222.904 34.9254 220.3 34.0812C221.596 29.9199 206.366 28.731 204.743 34.9432C203.578 39.4018 207.127 43.4977 207.127 43.4977Z" fill="#263238"/>
<path d="M209.517 42.1066C209.274 43.2584 208.645 44.2925 207.733 45.0374C206.509 46.048 205.45 45.2573 205.409 43.896C205.379 42.6714 205.974 40.668 207.382 40.1746C208.791 39.6812 209.766 40.7512 209.517 42.1066Z" fill="#B55B52"/>
<path d="M206.431 90.8179C206.431 90.8179 209.487 126.962 212.661 147.335C215.224 163.79 217.239 202.246 217.239 202.246H224.42C224.42 202.246 227.844 165.103 226.542 148.833C223.255 107.653 229.027 100.365 222.173 90.8179H206.431Z" fill="#263238"/>
<path opacity="0.2" d="M208.661 114.139C209.63 123.651 210.836 134.476 212.097 143.31C214.124 138.554 216.258 132.045 216.668 118.592C216.894 109.52 211.889 107.749 208.661 114.139Z" fill="black"/>
<path d="M189.721 207.418C189.742 207.419 189.764 207.414 189.782 207.403C189.801 207.393 189.817 207.377 189.828 207.359C189.844 207.339 189.853 207.313 189.853 207.287C189.853 207.261 189.844 207.236 189.828 207.216C189.649 207.014 188.092 205.248 187.361 205.337C187.292 205.346 187.227 205.372 187.171 205.413C187.115 205.453 187.07 205.507 187.04 205.569C186.987 205.669 186.959 205.78 186.959 205.893C186.959 206.006 186.987 206.117 187.04 206.217C187.384 206.901 188.871 207.264 189.721 207.406V207.418ZM187.408 205.587C187.818 205.587 188.74 206.419 189.376 207.103C188.223 206.853 187.432 206.509 187.242 206.104C187.205 206.04 187.186 205.967 187.186 205.893C187.186 205.819 187.205 205.747 187.242 205.682C187.252 205.656 187.268 205.634 187.291 205.617C187.313 205.6 187.339 205.59 187.367 205.587H187.408Z" fill="#01213F"/>
<path d="M189.721 207.418H189.75C189.772 207.413 189.791 207.401 189.807 207.386C189.823 207.37 189.834 207.35 189.84 207.329C189.84 207.275 190.262 205.908 189.84 205.153C189.783 205.043 189.703 204.947 189.607 204.869C189.511 204.791 189.4 204.734 189.281 204.701C188.942 204.606 188.787 204.737 188.686 204.856C188.377 205.379 189.114 206.889 189.596 207.382C189.612 207.399 189.632 207.411 189.654 207.417C189.675 207.423 189.699 207.424 189.721 207.418ZM189.067 204.921C189.116 204.914 189.166 204.914 189.215 204.921C189.304 204.945 189.387 204.987 189.458 205.044C189.53 205.102 189.589 205.173 189.631 205.254C189.827 205.831 189.837 206.455 189.661 207.038C189.203 206.443 188.746 205.302 188.936 204.993C188.942 204.969 188.972 204.921 189.043 204.921H189.067Z" fill="#01213F"/>
<path d="M195.011 211.021L190.089 208.892L191.48 202.597L192.889 196.26L193.05 195.523L198.156 196.813L197.978 197.645L196.617 203.78L195.011 211.021Z" fill="#B55B52"/>
<path opacity="0.2" d="M196.617 203.78L191.385 203.037L192.889 196.26L197.978 197.645L196.617 203.78Z" fill="black"/>
<path d="M200.784 90.8179C200.784 90.8179 197.217 129.744 195.885 148.185C194.696 164.83 191.052 199.779 191.052 199.779L198.156 200.837C198.156 200.837 207.668 161.489 209.154 150.105C213.416 117.409 221.763 107.303 219.724 90.8179H200.784Z" fill="#263238"/>
<path d="M190.262 206.877L195.772 209.041C195.868 209.076 195.947 209.145 195.994 209.236C196.041 209.326 196.053 209.43 196.028 209.528L194.946 214.13C194.915 214.245 194.86 214.352 194.785 214.445C194.709 214.537 194.615 214.613 194.508 214.666C194.402 214.719 194.285 214.75 194.165 214.754C194.046 214.759 193.927 214.739 193.817 214.694C191.908 213.91 191.028 213.434 188.609 212.483C187.117 211.889 183.978 210.836 181.921 210.028C179.864 209.219 180.554 207.145 181.481 207.299C185.643 207.983 187.604 207.436 189.328 206.859C189.632 206.755 189.962 206.761 190.262 206.877Z" fill="#263238"/>
<path d="M189.845 201.295L198.858 202.847L199.892 199.446L190.244 197.776L189.845 201.295Z" fill="#01213F"/>
<path d="M216.258 202.389H225.407L225.889 199.179L216.205 198.852L216.258 202.389Z" fill="#01213F"/>
<path d="M230.49 67.2351L225.205 71.4439L222.03 73.9764C222.03 73.9764 221.697 73.0906 221.293 71.8244C220.526 69.3692 219.51 65.4873 220.217 63.6979C221.305 60.8682 223.38 58.3179 225.966 58.8827C228.153 59.3642 230.49 67.2351 230.49 67.2351Z" fill="#01213F"/>
<path opacity="0.2" d="M224.456 72.0444L222.03 73.9764C222.03 73.9764 221.697 73.0906 221.293 71.8244L223.178 62.4852L224.456 72.0444Z" fill="black"/>
<path d="M198.269 59.0373C198.269 59.0373 195.76 59.9171 200.784 90.8179H222.185C221.828 82.1148 221.816 76.7467 225.978 58.8827C222.983 58.2665 219.947 57.8692 216.894 57.6938C213.66 57.4587 210.414 57.4587 207.18 57.6938C203.001 58.0683 198.269 59.0373 198.269 59.0373Z" fill="#01213F"/>
<path d="M217.108 52.3137L215.069 52.2721C211.532 57.1528 215.604 57.3608 215.598 61.5578C215.592 65.7548 211.044 68.2278 216.65 71.1824C212.525 66.8486 224.069 64.3281 217.108 52.3137Z" fill="#263238"/>
<path d="M212.822 50.7681C212.966 51.5141 213.061 52.2687 213.107 53.0271C213.107 53.1848 213.17 53.336 213.281 53.4475C213.393 53.559 213.544 53.6216 213.702 53.6216C214.73 53.6216 216.781 53.6216 217.768 53.6216C217.922 53.6106 218.067 53.5444 218.176 53.4352C218.285 53.326 218.351 53.1811 218.362 53.0271C218.447 52.1579 218.484 51.2847 218.475 50.4114C218.475 50.2538 218.413 50.1026 218.301 49.9911C218.19 49.8796 218.039 49.817 217.881 49.817C216.317 49.817 214.379 49.918 213.357 49.9894C213.183 50.0226 213.03 50.123 212.929 50.2688C212.829 50.4146 212.791 50.594 212.822 50.7681Z" fill="#01213F"/>
<path d="M222.494 89.5635L223.457 91.4777C223.534 91.6263 223.356 91.7809 223.112 91.7809H200.677C200.487 91.7809 200.326 91.6858 200.314 91.5609L200.124 89.6467C200.124 89.516 200.273 89.403 200.487 89.403H222.143C222.211 89.3973 222.278 89.4091 222.34 89.4372C222.401 89.4653 222.454 89.5088 222.494 89.5635Z" fill="#01213F"/>
<path opacity="0.5" d="M222.494 89.5635L223.457 91.4777C223.534 91.6263 223.356 91.7809 223.112 91.7809H200.677C200.487 91.7809 200.326 91.6858 200.314 91.5609L200.124 89.6467C200.124 89.516 200.273 89.403 200.487 89.403H222.143C222.211 89.3973 222.278 89.4091 222.34 89.4372C222.401 89.4653 222.454 89.5088 222.494 89.5635Z" fill="white"/>
<path d="M219.587 91.983H220.182C220.3 91.983 220.384 91.9236 220.378 91.8522L220.104 89.3673C220.104 89.296 219.997 89.2306 219.884 89.2306H219.29C219.177 89.2306 219.088 89.296 219.094 89.3673L219.367 91.8522C219.361 91.9236 219.468 91.983 219.587 91.983Z" fill="#263238"/>
<path d="M205.522 91.983H206.116C206.229 91.983 206.318 91.9236 206.312 91.8522L206.039 89.3673C206.039 89.296 205.932 89.2306 205.813 89.2306H205.219C205.1 89.2306 205.016 89.296 205.022 89.3673L205.296 91.8522C205.308 91.9236 205.409 91.983 205.522 91.983Z" fill="#263238"/>
</svg>
