<svg width="307" height="307" viewBox="0 0 307 307" fill="none" xmlns="http://www.w3.org/2000/svg">
<path d="M307 234.794H0V234.947H307V234.794Z" fill="#EBEBEB"/>
<path d="M52.5461 240.639H32.2104V240.792H52.5461V240.639Z" fill="#EBEBEB"/>
<path d="M110.416 238.975H94.2122V239.128H110.416V238.975Z" fill="#EBEBEB"/>
<path d="M83.4365 244.261H55.2416V244.415H83.4365V244.261Z" fill="#EBEBEB"/>
<path d="M276.239 245.311H262.976V245.465H276.239V245.311Z" fill="#EBEBEB"/>
<path d="M259.992 245.311H240.363V245.465H259.992V245.311Z" fill="#EBEBEB"/>
<path d="M204.051 242.72H170.207V242.874H204.051V242.72Z" fill="#EBEBEB"/>
<path d="M145.518 207.409H26.9607C26.032 207.408 25.1418 207.037 24.4856 206.38C23.8295 205.723 23.4609 204.832 23.4609 203.903V37.2452C23.469 36.3218 23.8411 35.4388 24.4964 34.7882C25.1517 34.1375 26.0373 33.7716 26.9607 33.77H145.518C146.448 33.77 147.34 34.1394 147.997 34.7969C148.655 35.4544 149.024 36.3461 149.024 37.2759V203.903C149.024 204.833 148.655 205.725 147.997 206.382C147.34 207.04 146.448 207.409 145.518 207.409ZM26.9607 33.8928C26.0727 33.8944 25.2216 34.2484 24.5942 34.8769C23.9668 35.5054 23.6144 36.3572 23.6144 37.2452V203.903C23.6144 204.791 23.9668 205.643 24.5942 206.272C25.2216 206.9 26.0727 207.254 26.9607 207.256H145.518C146.407 207.254 147.258 206.9 147.887 206.272C148.515 205.644 148.869 204.792 148.87 203.903V37.2452C148.869 36.3566 148.515 35.5049 147.887 34.8765C147.258 34.2482 146.407 33.8944 145.518 33.8928H26.9607Z" fill="#EBEBEB"/>
<path d="M278.332 207.409H159.769C158.84 207.408 157.949 207.038 157.292 206.381C156.635 205.723 156.265 204.833 156.263 203.903V37.2452C156.273 36.3212 156.646 35.4383 157.302 34.7878C157.959 34.1372 158.845 33.7716 159.769 33.77H278.332C279.255 33.7732 280.139 34.1398 280.793 34.7903C281.447 35.4408 281.818 36.3229 281.826 37.2452V203.903C281.826 204.831 281.458 205.721 280.803 206.378C280.149 207.035 279.26 207.406 278.332 207.409ZM159.769 33.8928C158.88 33.8944 158.029 34.2482 157.4 34.8765C156.772 35.5049 156.418 36.3566 156.417 37.2452V203.903C156.418 204.792 156.772 205.644 157.4 206.272C158.029 206.9 158.88 207.254 159.769 207.256H278.332C279.221 207.254 280.073 206.9 280.701 206.272C281.329 205.644 281.683 204.792 281.685 203.903V37.2452C281.683 36.3566 281.329 35.5049 280.701 34.8765C280.073 34.2482 279.221 33.8944 278.332 33.8928H159.769Z" fill="#EBEBEB"/>
<path d="M177.642 52.4847H47.6034V132.704H177.642V52.4847Z" fill="#E6E6E6"/>
<path d="M180.983 52.4847H49.163V132.704H180.983V52.4847Z" fill="#F0F0F0"/>
<path d="M177.642 132.704H47.6034V138.911H177.642V132.704Z" fill="#E6E6E6"/>
<path d="M186.545 132.704H54.7258V138.911H186.545V132.704Z" fill="#F0F0F0"/>
<path d="M176.304 128.031V57.1634L53.8417 57.1634V128.031H176.304Z" fill="#FAFAFA"/>
<path d="M62.8306 128.031L90.2826 57.1634H103.238L75.786 128.031H62.8306Z" fill="white"/>
<path d="M78.5736 128.031L106.026 57.1634H111.073L83.6207 128.031H78.5736Z" fill="white"/>
<path d="M126.601 128.031L154.053 57.1634H159.106L131.654 128.031H126.601Z" fill="white"/>
<path d="M176.304 128.025V57.1573H175.708V128.025H176.304Z" fill="#E6E6E6"/>
<path d="M188.191 173.725H165.191V234.794H188.191V173.725Z" fill="#E6E6E6"/>
<path d="M183.819 234.794H188.191V220.807H179.239L183.819 234.794Z" fill="#F0F0F0"/>
<path d="M56.9608 173.725H33.9603V234.794H56.9608V173.725Z" fill="#E6E6E6"/>
<path d="M188.191 173.725H53.1478V232.583H188.191V173.725Z" fill="#F0F0F0"/>
<path d="M57.5134 234.794H53.1478V220.807H62.0938L57.5134 234.794Z" fill="#F0F0F0"/>
<path d="M57.6423 181.891V223.834C57.6423 224.651 58.3048 225.313 59.1221 225.313H96.1954C97.0126 225.313 97.6751 224.651 97.6751 223.834V181.891C97.6751 181.074 97.0126 180.412 96.1954 180.412H59.1221C58.3048 180.412 57.6423 181.074 57.6423 181.891Z" fill="#FAFAFA"/>
<path d="M81.6129 185.011H73.68C70.2416 185.011 66.926 182.966 64.5867 179.343H90.6939C88.3423 182.972 85.0513 185.011 81.6129 185.011Z" fill="#F0F0F0"/>
<path d="M100.653 181.891V223.834C100.653 224.651 101.316 225.313 102.133 225.313H139.206C140.023 225.313 140.686 224.651 140.686 223.834V181.891C140.686 181.074 140.023 180.412 139.206 180.412H102.133C101.316 180.412 100.653 181.074 100.653 181.891Z" fill="#FAFAFA"/>
<path d="M125.035 185.011H117.114C113.67 185.011 110.36 182.966 108.021 179.343H134.128C131.758 182.972 128.473 185.011 125.035 185.011Z" fill="#F0F0F0"/>
<path d="M143.67 181.891V223.834C143.67 224.651 144.332 225.313 145.15 225.313H182.223C183.04 225.313 183.703 224.651 183.703 223.834V181.891C183.703 181.074 183.04 180.412 182.223 180.412H145.15C144.332 180.412 143.67 181.074 143.67 181.891Z" fill="#FAFAFA"/>
<path d="M168.046 185.011H160.125C156.687 185.011 153.371 182.966 151.032 179.343H177.145C174.775 182.972 171.49 185.011 168.046 185.011Z" fill="#F0F0F0"/>
<path d="M283.343 167.733C283.313 167.593 283.235 167.468 283.123 167.38C283.011 167.291 282.871 167.244 282.729 167.247H266.728C266.585 167.244 266.446 167.291 266.333 167.38C266.221 167.468 266.144 167.593 266.114 167.733L257.88 234.794H259.108L267.237 168.482H282.244L290.379 234.794H291.607L283.343 167.733Z" fill="#F0F0F0"/>
<path d="M259.255 167.733C259.225 167.593 259.148 167.468 259.036 167.38C258.924 167.291 258.784 167.244 258.641 167.247H242.647C242.504 167.244 242.364 167.291 242.252 167.38C242.14 167.468 242.063 167.593 242.033 167.733L233.756 234.794H235.015L243.15 168.482H258.15L266.28 234.794H267.538L259.255 167.733Z" fill="#F0F0F0"/>
<path d="M270.774 167.855H243.205C237.937 167.855 235.027 164.282 233.535 158.387L232.804 155.017C232.554 153.996 232.539 152.932 232.763 151.905C232.986 150.879 233.44 149.916 234.092 149.092C234.743 148.268 235.574 147.603 236.522 147.148C237.469 146.694 238.508 146.462 239.558 146.47H256.842C260.422 146.47 261.368 147.323 263.836 152.714L270.774 167.855Z" fill="#F0F0F0"/>
<path d="M255.706 162.575H282.686C283.687 162.575 284.648 162.973 285.356 163.681C286.064 164.389 286.462 165.35 286.462 166.351V166.48C286.462 166.845 286.317 167.195 286.059 167.452C285.801 167.71 285.451 167.855 285.086 167.855H255.706V162.575Z" fill="#F0F0F0"/>
<path d="M247.442 167.733C247.412 167.593 247.334 167.468 247.222 167.38C247.11 167.291 246.971 167.244 246.828 167.247H230.809C230.666 167.244 230.527 167.291 230.414 167.38C230.302 167.468 230.225 167.593 230.195 167.733L221.924 234.794H223.183L231.312 168.482H246.318L254.448 234.794H255.676L247.442 167.733Z" fill="#F0F0F0"/>
<path d="M223.336 167.733C223.306 167.593 223.229 167.468 223.117 167.38C223.005 167.291 222.865 167.244 222.722 167.247H206.728C206.585 167.244 206.445 167.291 206.333 167.38C206.221 167.468 206.144 167.593 206.114 167.733L197.837 234.794H199.096L207.231 168.482H222.231L230.361 234.794H231.619L223.336 167.733Z" fill="#F0F0F0"/>
<path d="M234.824 167.855H207.256C201.988 167.855 199.071 164.282 197.585 158.387L196.855 155.017C196.604 153.996 196.59 152.932 196.813 151.905C197.036 150.879 197.491 149.916 198.142 149.092C198.793 148.268 199.625 147.603 200.572 147.148C201.519 146.694 202.558 146.462 203.609 146.47H220.886C224.472 146.47 225.412 147.323 227.886 152.714L234.824 167.855Z" fill="#F0F0F0"/>
<path d="M219.812 162.575H246.767C247.768 162.575 248.729 162.973 249.437 163.681C250.145 164.389 250.543 165.35 250.543 166.351V166.48C250.543 166.845 250.398 167.195 250.14 167.452C249.882 167.71 249.532 167.855 249.167 167.855H219.812V162.575Z" fill="#F0F0F0"/>
<path d="M263.529 49.1937H215.839V104.81H263.529V49.1937Z" fill="#F0F0F0"/>
<path d="M267.538 49.1937H216.558V104.81H267.538V49.1937Z" fill="#F5F5F5"/>
<path d="M263.154 100.42V53.5715H220.942V100.42H263.154Z" fill="white"/>
<path d="M238.656 94.6727H245.446V73.5818H238.656V94.6727Z" fill="#E6E6E6"/>
<path d="M250.205 94.6665H256.996V84.7934H250.205V94.6665Z" fill="#E6E6E6"/>
<path d="M250.205 84.7995H256.996V78.7762H250.205V84.7995Z" fill="#F0F0F0"/>
<path d="M238.656 73.5756H245.446V60.7123H238.656V73.5756Z" fill="#F0F0F0"/>
<path d="M227.106 94.6665H233.897V77.4131H227.106V94.6665Z" fill="#E6E6E6"/>
<path d="M227.106 77.4131H233.897V69.5048H227.106V77.4131Z" fill="#F0F0F0"/>
<path d="M153.5 262.522C219.249 262.522 272.548 259.41 272.548 255.571C272.548 251.733 219.249 248.621 153.5 248.621C87.7513 248.621 34.4515 251.733 34.4515 255.571C34.4515 259.41 87.7513 262.522 153.5 262.522Z" fill="#F5F5F5"/>
<path d="M151.271 249.873L156.705 249.923L159.603 237.329L154.163 237.28L151.271 249.873Z" fill="#FF8B7B"/>
<path d="M156.84 249.284L150.897 249.235C150.786 249.235 150.678 249.27 150.589 249.337C150.501 249.403 150.436 249.497 150.405 249.603L148.969 254.423C148.93 254.535 148.919 254.655 148.937 254.773C148.955 254.89 149 255.001 149.07 255.097C149.14 255.193 149.232 255.27 149.338 255.323C149.445 255.376 149.562 255.402 149.681 255.399C151.83 255.399 154.937 255.283 157.663 255.307C160.813 255.338 161.464 255.528 165.16 255.565C167.389 255.565 168.181 253.33 167.26 253.109C163.072 252.139 161.66 252.01 158.154 249.708C157.768 249.44 157.31 249.292 156.84 249.284Z" fill="#868686"/>
<path opacity="0.2" d="M159.597 237.336L158.111 243.826L152.671 243.776L154.157 237.286L159.597 237.336Z" fill="black"/>
<path d="M159.087 250.26C158.503 250.248 157.921 250.178 157.35 250.052C157.323 250.047 157.298 250.033 157.28 250.013C157.261 249.993 157.249 249.968 157.245 249.941C157.243 249.915 157.249 249.888 157.262 249.865C157.275 249.842 157.295 249.823 157.319 249.812C157.577 249.683 159.861 248.584 160.487 248.977C160.545 249.013 160.593 249.064 160.625 249.124C160.657 249.185 160.673 249.252 160.672 249.321C160.673 249.438 160.647 249.555 160.597 249.661C160.548 249.767 160.474 249.861 160.383 249.935C159.997 250.178 159.543 250.292 159.087 250.26ZM157.798 249.898C158.977 250.107 159.873 250.064 160.254 249.769C160.319 249.72 160.37 249.655 160.404 249.581C160.439 249.508 160.454 249.427 160.45 249.345C160.453 249.321 160.448 249.297 160.437 249.275C160.427 249.253 160.41 249.235 160.389 249.223C160.015 248.989 158.725 249.45 157.798 249.898Z" fill="#01213F"/>
<path d="M157.374 250.058C157.345 250.057 157.317 250.046 157.295 250.027C157.276 250.012 157.263 249.993 157.254 249.972C157.245 249.95 157.242 249.927 157.245 249.904C157.245 249.806 157.675 247.448 158.971 247.608C159.315 247.651 159.407 247.823 159.431 247.958C159.517 248.572 158.123 249.751 157.423 250.045L157.374 250.058ZM158.86 247.86C158.08 247.86 157.687 249.13 157.552 249.702C158.271 249.296 159.229 248.375 159.173 248.007C159.173 248.007 159.173 247.902 158.94 247.878L158.86 247.86Z" fill="#01213F"/>
<path d="M184.2 101.083C184.28 104.392 184.396 107.837 184.556 111.189C184.63 112.872 184.722 114.554 184.839 116.224C184.955 117.894 185.09 119.558 185.275 121.197C185.352 122.016 185.451 122.835 185.569 123.653L185.649 124.267C185.649 124.341 185.649 124.267 185.649 124.304C185.649 124.304 185.649 124.372 185.649 124.482C185.868 124.867 186.173 125.197 186.539 125.446C187.072 125.849 187.639 126.204 188.234 126.509C190.831 127.859 194.128 128.848 197.26 129.732L196.928 133.889C195.086 133.998 193.238 133.957 191.402 133.766C190.475 133.68 189.56 133.545 188.615 133.367C187.653 133.189 186.703 132.949 185.772 132.649C184.752 132.341 183.767 131.929 182.831 131.421C181.686 130.809 180.662 129.993 179.81 129.014C179.294 128.393 178.88 127.694 178.582 126.944C178.496 126.748 178.428 126.533 178.361 126.33L178.275 126.011L178.201 125.735L178.06 125.06C177.851 124.163 177.673 123.267 177.514 122.376C176.869 118.809 176.476 115.285 176.187 111.754C176.065 109.992 175.936 108.23 175.886 106.468C175.837 104.705 175.77 102.962 175.8 101.138L184.2 101.083Z" fill="#FF8B7B"/>
<path d="M173.83 101.5C173.056 107.671 174.48 116.783 174.48 116.783C174.48 116.783 178.778 117.397 182.125 116.513C185.471 115.628 186.177 114.972 186.177 114.972C186.981 110.728 187.014 106.375 186.275 102.12C184.931 95.1516 179.331 92.5052 175.457 96.7603C174.591 97.7242 174.087 99.468 173.83 101.5Z" fill="#01213F"/>
<path opacity="0.2" d="M174.468 104.478C174.136 105.521 173.857 106.581 173.633 107.653C173.755 110.707 174.038 113.752 174.48 116.777C176.848 117.086 179.249 117.041 181.603 116.642C181.701 115.463 181.762 114.186 181.756 112.915C181.744 107.008 178.287 103.496 174.468 104.478Z" fill="black"/>
<path d="M195.363 129.413L199.618 129.136L199.409 134.527C198.462 134.635 197.502 134.544 196.593 134.258C195.683 133.973 194.844 133.5 194.128 132.87L195.363 129.413Z" fill="#FF8B7B"/>
<path d="M203.952 131.629L203.16 133.852C203.056 134.152 202.853 134.407 202.584 134.576C202.315 134.745 201.996 134.816 201.681 134.779L199.409 134.521L199.618 129.13L202.902 129.775C203.1 129.815 203.287 129.898 203.451 130.016C203.614 130.135 203.75 130.287 203.85 130.463C203.949 130.639 204.01 130.834 204.028 131.035C204.045 131.236 204.02 131.439 203.952 131.629Z" fill="#FF8B7B"/>
<path d="M202.172 128.251L200.788 127.479C200.438 127.285 199.997 127.41 199.802 127.76L196.721 133.289C196.526 133.639 196.651 134.08 197.001 134.275L198.385 135.046C198.734 135.241 199.175 135.115 199.37 134.766L202.452 129.236C202.646 128.887 202.521 128.445 202.172 128.251Z" fill="#868686"/>
<path d="M199.551 134.283L197.031 132.879C196.841 132.773 196.602 132.841 196.496 133.031L195.265 135.24C195.159 135.43 195.227 135.669 195.417 135.775L197.937 137.18C198.127 137.285 198.366 137.217 198.472 137.028L199.703 134.818C199.809 134.628 199.741 134.389 199.551 134.283Z" fill="#868686"/>
<path d="M205.543 129.554C204.014 129.554 202.511 129.163 201.177 128.418C199.489 127.548 198.099 126.193 197.186 124.528C196.273 122.863 195.877 120.963 196.051 119.072C196.224 117.18 196.959 115.384 198.16 113.913C199.361 112.442 200.974 111.362 202.792 110.814C204.61 110.265 206.551 110.272 208.365 110.833C210.18 111.395 211.785 112.485 212.975 113.965C214.166 115.445 214.888 117.246 215.048 119.138C215.208 121.031 214.8 122.928 213.875 124.587C213.052 126.08 211.847 127.328 210.382 128.201C208.918 129.074 207.247 129.541 205.543 129.554ZM206.083 111.944C204.611 111.958 203.169 112.364 201.906 113.119C200.642 113.875 199.602 114.953 198.893 116.242C198.341 117.154 197.979 118.166 197.828 119.221C197.676 120.275 197.738 121.349 198.011 122.378C198.284 123.408 198.761 124.372 199.415 125.213C200.069 126.053 200.885 126.754 201.815 127.272C202.746 127.791 203.771 128.116 204.83 128.23C205.889 128.343 206.96 128.242 207.979 127.932C208.998 127.623 209.944 127.111 210.761 126.427C211.577 125.744 212.248 124.903 212.733 123.954C213.809 122.101 214.106 119.897 213.559 117.825C213.013 115.753 211.666 113.983 209.816 112.902C208.673 112.273 207.388 111.948 206.083 111.957V111.944Z" fill="#868686"/>
<path d="M172.798 141.398C172.798 141.398 175.586 172.098 174.775 188.891C173.934 206.304 161.58 240.688 161.58 240.688L151.756 240.479C151.756 240.479 158.51 202.638 158.326 185.311C158.142 166.412 156.404 138.113 156.404 138.113L172.798 141.398Z" fill="#868686"/>
<path opacity="0.2" d="M159.959 146.089C158.836 144.763 157.829 146.028 156.981 148.49C157.331 155.109 157.755 164.049 158.031 172.712C162.827 165.418 163.576 150.381 159.959 146.089Z" fill="black"/>
<path d="M150.547 240.891L162.102 241.124L163.336 237.286L151.271 237.256L150.547 240.891Z" fill="#01213F"/>
<path opacity="0.4" d="M150.547 240.891L162.102 241.124L163.336 237.286L151.271 237.256L150.547 240.891Z" fill="white"/>
<path d="M110.563 228.482L114.677 232.043L123.967 223.41L119.847 219.849L110.563 228.482Z" fill="#FF8B7B"/>
<path d="M115.039 232.215L111.932 227.18C111.873 227.087 111.786 227.014 111.684 226.973C111.581 226.933 111.468 226.925 111.361 226.953L106.511 228.291C106.395 228.318 106.288 228.372 106.198 228.448C106.108 228.525 106.037 228.622 105.993 228.732C105.948 228.842 105.931 228.96 105.942 229.078C105.953 229.196 105.992 229.309 106.056 229.409C107.211 231.22 108.942 233.805 110.354 236.108C112 238.791 111.987 238.748 113.922 241.898C115.088 243.807 117.415 243.279 117.108 242.389C115.708 238.324 115.266 237.759 115.352 233.566C115.386 233.094 115.276 232.624 115.039 232.215Z" fill="#868686"/>
<path opacity="0.2" d="M123.96 223.41L119.177 227.862L115.057 224.3L119.847 219.849L123.96 223.41Z" fill="black"/>
<path d="M115.432 234.634C115.132 234.131 114.881 233.601 114.683 233.05C114.674 233.024 114.674 232.996 114.681 232.969C114.689 232.943 114.705 232.92 114.726 232.902C114.748 232.887 114.773 232.879 114.8 232.879C114.826 232.879 114.852 232.887 114.873 232.902C115.119 233.056 117.262 234.419 117.262 235.156C117.262 235.225 117.244 235.292 117.209 235.351C117.175 235.411 117.125 235.46 117.065 235.494C116.966 235.559 116.853 235.601 116.735 235.616C116.616 235.631 116.496 235.619 116.384 235.58C115.971 235.377 115.637 235.045 115.432 234.634ZM115.07 233.326C115.518 234.431 116.028 235.168 116.464 235.322C116.539 235.35 116.621 235.359 116.701 235.348C116.782 235.337 116.858 235.307 116.924 235.26C116.992 235.217 117.004 235.174 117.004 235.144C116.979 234.744 115.899 233.897 115.045 233.32L115.07 233.326Z" fill="#01213F"/>
<path d="M114.671 233.068C114.664 233.042 114.664 233.015 114.671 232.988C114.673 232.965 114.682 232.944 114.696 232.925C114.71 232.907 114.729 232.893 114.75 232.884C114.843 232.847 117.047 231.957 117.612 233.13C117.759 233.443 117.661 233.615 117.556 233.707C117.084 234.106 115.346 233.541 114.726 233.093L114.671 233.068ZM117.317 233.173C116.906 232.51 115.622 232.853 115.076 233.031C115.8 233.424 117.09 233.744 117.372 233.51C117.372 233.51 117.452 233.437 117.372 233.24C117.358 233.215 117.339 233.192 117.317 233.173Z" fill="#01213F"/>
<path d="M162.839 139.378C162.839 139.378 157.663 168.138 153.954 184.513C150.105 201.546 123.353 227.248 123.353 227.248L115.985 220.721C115.985 220.721 135.522 195.203 138.359 178.109C141.429 159.468 144.247 135.633 144.247 135.633L162.839 139.378Z" fill="#868686"/>
<path d="M114.523 220.758L122.917 228.279L125.772 225.878L116.912 217.362L114.523 220.758Z" fill="#01213F"/>
<path opacity="0.4" d="M114.523 220.758L122.917 228.279L125.772 225.878L116.912 217.362L114.523 220.758Z" fill="white"/>
<path d="M181.781 95.213C181.781 95.213 184.851 112.595 172.798 141.398L144.29 135.645C144.978 131.224 152.039 110.409 151.977 88.9133C155.264 88.941 158.545 89.181 161.801 89.6317C165.89 90.2148 169.941 91.0349 173.934 92.0877C176.627 92.9241 179.25 93.969 181.781 95.213Z" fill="#01213F"/>
<path opacity="0.2" d="M176.556 112.608C176.169 118.232 172.405 122.616 168.211 122.333C166.823 122.219 165.512 121.647 164.484 120.706L165.676 118.385C166.426 119.076 167.385 119.495 168.402 119.577C171.472 119.785 174.223 116.58 174.499 112.466L176.556 112.608Z" fill="#868686"/>
<path opacity="0.5" d="M176.556 112.608L174.499 112.466C174.575 111.39 174.47 110.308 174.186 109.267C173.936 108.3 173.495 107.392 172.89 106.597L174.358 104.57C175.185 105.67 175.788 106.922 176.132 108.254C176.509 109.673 176.652 111.143 176.556 112.608Z" fill="white"/>
<path opacity="0.4" d="M174.376 104.57L172.909 106.597C172.474 106.022 171.929 105.539 171.306 105.178C170.731 104.836 170.087 104.626 169.421 104.564L169.611 101.807C170.519 101.876 171.399 102.151 172.184 102.612C173.036 103.114 173.781 103.78 174.376 104.57Z" fill="#868686"/>
<path opacity="0.2" d="M169.605 101.832L169.415 104.589C166.345 104.38 163.6 107.591 163.324 111.705C163.14 114.376 164.036 116.93 165.676 118.385L164.484 120.706C162.243 118.711 161.015 115.223 161.267 111.564C161.648 105.94 165.412 101.549 169.605 101.832Z" fill="white"/>
<path opacity="0.2" d="M151.081 103.011C150.817 105.172 150.51 107.309 150.178 109.341C152.561 108.236 155.815 102.385 155.465 99.161L151.081 103.011Z" fill="black"/>
<path d="M165.694 76.2158C165.694 80.2744 164.994 87.581 161.74 89.6317C161.74 89.6317 162.839 94.1446 171.238 97.2146C175.358 95.3726 173.873 92.0816 173.873 92.0816C169.728 90.1598 170.489 86.9547 171.865 84.0996L165.694 76.2158Z" fill="#FF8B7B"/>
<path opacity="0.2" d="M168.236 79.4209L171.883 84.0689C171.554 84.7384 171.283 85.4348 171.073 86.1503C169.464 85.5732 167.542 83.2891 167.72 81.5085C167.761 80.7867 167.936 80.0788 168.236 79.4209Z" fill="black"/>
<path d="M177.71 75.0369C178.471 73.1949 178.582 71.0828 177.096 69.6767C177.188 68.4487 178.097 67.0549 179.356 65.9559C181.167 64.9551 184.814 71.924 177.71 75.0369Z" fill="#868686"/>
<path d="M179.841 69.075C179.678 69.075 179.522 69.0103 179.406 68.8952C179.291 68.78 179.227 68.6238 179.227 68.461C179.227 68.2982 179.291 68.142 179.406 68.0268C179.522 67.9117 179.678 67.847 179.841 67.847C179.963 67.847 182.763 67.6874 183.666 64.4086C183.687 64.3308 183.724 64.258 183.773 64.1942C183.823 64.1305 183.884 64.0772 183.954 64.0373C184.025 63.9974 184.102 63.9717 184.182 63.9616C184.262 63.9516 184.343 63.9574 184.421 63.9788C184.499 64.0002 184.572 64.0367 184.635 64.0862C184.699 64.1357 184.752 64.1973 184.792 64.2674C184.832 64.3375 184.858 64.4148 184.868 64.4949C184.878 64.575 184.872 64.6562 184.851 64.734C184.587 65.8894 183.965 66.9316 183.072 67.7114C182.18 68.4912 181.064 68.9686 179.884 69.075H179.841Z" fill="#868686"/>
<path d="M166.394 70.2477C165.651 75.5957 164.945 78.6902 167.069 81.9445C170.262 86.8564 177.274 85.7267 179.595 80.7164C181.689 76.1974 182.548 68.2093 177.802 65.0594C176.759 64.3609 175.555 63.9405 174.303 63.8382C173.052 63.7358 171.795 63.9549 170.652 64.4747C169.509 64.9944 168.518 65.7976 167.773 66.808C167.028 67.8183 166.553 69.0024 166.394 70.2477Z" fill="#FF8B7B"/>
<path d="M166.241 74.9878C166.86 75.0053 167.477 75.0792 168.083 75.2089C168.236 75.245 168.395 75.2446 168.548 75.2075C168.701 75.1705 168.843 75.0978 168.963 74.9955C169.083 74.8932 169.176 74.7642 169.237 74.6188C169.297 74.4734 169.322 74.3159 169.311 74.1589C169.212 72.8511 169.568 71.5187 170.766 70.9416C170.885 69.9595 170.641 68.9677 170.078 68.154C170.032 68.0488 170.017 67.9329 170.033 67.8193C170.05 67.7058 170.098 67.5992 170.172 67.5116C170.246 67.424 170.344 67.3589 170.453 67.3238C170.562 67.2887 170.679 67.2849 170.79 67.3128C173.455 68.3443 177.477 69.9653 179.497 68.9154C182.119 67.5523 185.121 62.6894 181.161 62.3517C179.263 62.1982 179.478 61.1237 178.048 60.1413C176.617 59.1589 173.136 59.2878 170.477 60.6018C167.818 61.9158 163.723 59.4782 162.164 61.4184C161.003 62.8368 161.728 64.8507 161.728 64.8507C161.728 64.8507 159.45 65.1577 159.063 69.4557C158.774 72.673 163.932 78.7639 165.541 79.4148C166.474 76.0869 166.241 74.9878 166.241 74.9878Z" fill="#868686"/>
<path d="M162.483 66.3734C162.356 66.3729 162.232 66.3331 162.129 66.2594C162.026 66.1857 161.948 66.0818 161.906 65.962C161.83 65.733 161.707 65.5227 161.543 65.3455C161.38 65.1682 161.18 65.028 160.958 64.9344C160.735 64.8407 160.496 64.7957 160.255 64.8025C160.014 64.8092 159.777 64.8675 159.56 64.9735C159.408 65.0196 159.244 65.005 159.103 64.9326C158.961 64.8603 158.853 64.7359 158.801 64.5856C158.75 64.4353 158.758 64.2708 158.825 64.1267C158.892 63.9826 159.013 63.8702 159.161 63.813C159.547 63.6579 159.96 63.5827 160.376 63.5922C160.792 63.6017 161.202 63.6957 161.58 63.8683C162.264 64.2346 162.792 64.8368 163.066 65.5629C163.119 65.7168 163.108 65.8854 163.037 66.0316C162.966 66.1778 162.839 66.2897 162.685 66.3427C162.62 66.3642 162.552 66.3746 162.483 66.3734Z" fill="#868686"/>
<path d="M174.137 73.3423C174.051 73.7721 174.204 74.1651 174.487 74.2203C174.769 74.2756 175.07 73.9747 175.156 73.5449C175.242 73.1151 175.082 72.7222 174.8 72.6669C174.517 72.6117 174.223 72.9125 174.137 73.3423Z" fill="#868686"/>
<path d="M178.999 74.3247C178.913 74.7545 179.073 75.1475 179.349 75.2027C179.626 75.258 179.933 74.9571 180.019 74.5273C180.105 74.0975 179.945 73.7046 179.669 73.6432C179.392 73.5818 179.085 73.8888 178.999 74.3247Z" fill="#868686"/>
<path d="M177.409 74.2265C177.658 75.6451 178.1 77.023 178.723 78.3218C177.821 78.8744 176.593 78.3218 176.593 78.3218L177.409 74.2265Z" fill="#FF5652"/>
<path d="M175.101 79.206C174.52 79.1047 173.972 78.8656 173.503 78.5087C173.034 78.1519 172.658 77.6877 172.405 77.1552C172.393 77.1242 172.393 77.0896 172.405 77.0587C172.418 77.0278 172.442 77.003 172.473 76.9895C172.505 76.9772 172.541 76.978 172.573 76.9917C172.605 77.0055 172.631 77.031 172.645 77.0631C172.886 77.5526 173.239 77.9787 173.675 78.3071C174.112 78.6355 174.619 78.8572 175.156 78.9543C175.189 78.9616 175.218 78.9819 175.237 79.0107C175.255 79.0395 175.261 79.0744 175.254 79.1078C175.247 79.1411 175.226 79.1702 175.198 79.1886C175.169 79.2071 175.134 79.2133 175.101 79.206Z" fill="#868686"/>
<path d="M175.254 70.874C175.301 70.908 175.334 70.9583 175.346 71.0152C175.363 71.0804 175.354 71.1495 175.321 71.2081C175.288 71.2666 175.233 71.3097 175.168 71.3284C174.776 71.4466 174.361 71.4693 173.958 71.3946C173.556 71.3198 173.177 71.1497 172.853 70.8986C172.828 70.876 172.807 70.8486 172.792 70.8181C172.778 70.7875 172.769 70.7543 172.767 70.7204C172.765 70.6864 172.77 70.6525 172.781 70.6204C172.792 70.5882 172.809 70.5587 172.832 70.5333C172.854 70.5079 172.882 70.4872 172.912 70.4723C172.943 70.4575 172.976 70.4488 173.01 70.4468C173.044 70.4448 173.078 70.4496 173.11 70.4607C173.142 70.4718 173.172 70.4892 173.197 70.5118C173.456 70.7094 173.758 70.8417 174.079 70.8973C174.4 70.9529 174.729 70.9302 175.039 70.831C175.114 70.8166 175.191 70.832 175.254 70.874Z" fill="#868686"/>
<path d="M181.744 72.0652C181.694 72.0681 181.644 72.0555 181.601 72.0292C181.558 72.0028 181.525 71.9639 181.505 71.9178C181.373 71.6222 181.174 71.3615 180.923 71.1568C180.673 70.952 180.378 70.8089 180.062 70.7389C179.994 70.7298 179.933 70.6943 179.892 70.6402C179.85 70.5862 179.832 70.5179 179.841 70.4504C179.851 70.3824 179.888 70.3212 179.943 70.2799C179.998 70.2387 180.067 70.2205 180.135 70.2293C180.537 70.3096 180.914 70.4847 181.234 70.7399C181.554 70.9951 181.809 71.3232 181.977 71.6968C181.992 71.7274 182 71.7606 182.002 71.7945C182.004 71.8284 181.999 71.8622 181.987 71.8942C181.976 71.9261 181.958 71.9555 181.935 71.9806C181.913 72.0058 181.885 72.0261 181.855 72.0406C181.82 72.0578 181.782 72.0662 181.744 72.0652Z" fill="#868686"/>
<path d="M156.257 98.3996C154.98 99.732 153.598 101.163 152.303 102.581C151.007 103.999 149.681 105.436 148.416 106.879C145.886 109.723 143.508 112.699 141.294 115.794L140.52 116.918C140.36 117.141 140.222 117.38 140.109 117.63C139.848 118.216 139.674 118.836 139.593 119.472C139.43 121.074 139.53 122.692 139.888 124.261C140.715 127.88 141.979 131.385 143.651 134.699L140.231 137.082C139.495 136.228 138.875 135.43 138.254 134.564C137.634 133.698 137.026 132.827 136.511 131.912C135.382 130.053 134.44 128.086 133.698 126.042C132.874 123.803 132.458 121.434 132.47 119.048C132.486 117.688 132.71 116.338 133.134 115.045C133.366 114.361 133.66 113.699 134.012 113.068L134.828 111.656C135.362 110.729 135.933 109.863 136.498 108.973C137.063 108.082 137.671 107.241 138.285 106.406C139.482 104.705 140.741 103.091 142.055 101.494C143.369 99.8978 144.695 98.3567 146.077 96.8462C147.458 95.3358 148.834 93.8683 150.375 92.3947L156.257 98.3996Z" fill="#FF8B7B"/>
<path d="M151.947 88.9134C146.746 89.1037 139.003 103.453 139.003 103.453C140.023 105.909 144.474 109.789 146.838 110.422C146.838 110.422 153.021 106.486 156.386 100.665C159.91 94.556 157.516 88.7107 151.947 88.9134Z" fill="#01213F"/>
<path d="M142.295 133.533L148.042 134.607L143.455 139.789C143.455 139.789 139.525 138.052 139.519 135.927L142.295 133.533Z" fill="#FF8B7B"/>
<path d="M149.681 140.053L148.508 141.281C148.107 141.694 147.564 141.939 146.989 141.969C146.414 141.999 145.849 141.81 145.407 141.441L143.455 139.814L148.042 134.632L149.884 137.125C150.198 137.559 150.35 138.09 150.313 138.626C150.276 139.161 150.052 139.666 149.681 140.053Z" fill="#FF8B7B"/>
<path d="M163.324 73.9563C163.313 74.6293 163.434 75.2978 163.682 75.9237C163.93 76.5495 164.298 77.1204 164.767 77.6035C166.026 78.8929 167.554 77.978 167.947 76.3202C168.31 74.8282 168.083 72.3599 166.455 71.6968C164.828 71.0337 163.385 72.2924 163.324 73.9563Z" fill="#FF8B7B"/>
<path d="M56.5003 202.915H47.1184C45.6738 202.915 44.5027 204.086 44.5027 205.53V222.041C44.5027 223.485 45.6738 224.656 47.1184 224.656H56.5003C57.9449 224.656 59.1159 223.485 59.1159 222.041V205.53C59.1159 204.086 57.9449 202.915 56.5003 202.915Z" fill="#01213F"/>
<path d="M73.4528 191.341H64.0709C62.6263 191.341 61.4553 192.512 61.4553 193.956V222.035C61.4553 223.479 62.6263 224.65 64.0709 224.65H73.4528C74.8974 224.65 76.0685 223.479 76.0685 222.035V193.956C76.0685 192.512 74.8974 191.341 73.4528 191.341Z" fill="#01213F"/>
<path d="M90.3992 196.363H81.0173C79.5727 196.363 78.4017 197.534 78.4017 198.979V222.041C78.4017 223.485 79.5727 224.656 81.0173 224.656H90.3992C91.8438 224.656 93.0149 223.485 93.0149 222.041V198.979C93.0149 197.534 91.8438 196.363 90.3992 196.363Z" fill="#01213F"/>
<path d="M107.346 189.198H97.9637C96.5191 189.198 95.3481 190.369 95.3481 191.814V222.041C95.3481 223.485 96.5191 224.656 97.9637 224.656H107.346C108.79 224.656 109.961 223.485 109.961 222.041V191.814C109.961 190.369 108.79 189.198 107.346 189.198Z" fill="#01213F"/>
<path d="M124.292 181.627H114.91C113.466 181.627 112.294 182.798 112.294 184.243V222.041C112.294 223.485 113.466 224.656 114.91 224.656H124.292C125.737 224.656 126.908 223.485 126.908 222.041V184.243C126.908 182.798 125.737 181.627 124.292 181.627Z" fill="#01213F"/>
<path d="M141.245 173.645H131.863C130.418 173.645 129.247 174.816 129.247 176.261V222.041C129.247 223.485 130.418 224.656 131.863 224.656H141.245C142.689 224.656 143.86 223.485 143.86 222.041V176.261C143.86 174.816 142.689 173.645 141.245 173.645Z" fill="#01213F"/>
<path d="M158.191 185.723H148.809C147.364 185.723 146.193 186.894 146.193 188.338V222.041C146.193 223.485 147.364 224.656 148.809 224.656H158.191C159.636 224.656 160.807 223.485 160.807 222.041V188.338C160.807 186.894 159.636 185.723 158.191 185.723Z" fill="#01213F"/>
<path d="M175.137 170.164H165.755C164.311 170.164 163.14 171.335 163.14 172.78V222.041C163.14 223.485 164.311 224.656 165.755 224.656H175.137C176.582 224.656 177.753 223.485 177.753 222.041V172.78C177.753 171.335 176.582 170.164 175.137 170.164Z" fill="#01213F"/>
<path d="M192.084 165.461H182.702C181.257 165.461 180.086 166.632 180.086 168.076V222.041C180.086 223.485 181.257 224.656 182.702 224.656H192.084C193.528 224.656 194.699 223.485 194.699 222.041V168.076C194.699 166.632 193.528 165.461 192.084 165.461Z" fill="#01213F"/>
<path d="M209.036 168.322H199.654C198.21 168.322 197.039 169.493 197.039 170.938V222.041C197.039 223.485 198.21 224.656 199.654 224.656H209.036C210.481 224.656 211.652 223.485 211.652 222.041V170.938C211.652 169.493 210.481 168.322 209.036 168.322Z" fill="#01213F"/>
<path d="M225.983 151.572H216.601C215.156 151.572 213.985 152.743 213.985 154.188V222.041C213.985 223.485 215.156 224.656 216.601 224.656H225.983C227.427 224.656 228.598 223.485 228.598 222.041V154.188C228.598 152.743 227.427 151.572 225.983 151.572Z" fill="#01213F"/>
<path d="M242.929 158.529H233.547C232.103 158.529 230.932 159.7 230.932 161.144V222.041C230.932 223.485 232.103 224.656 233.547 224.656H242.929C244.374 224.656 245.545 223.485 245.545 222.041V161.144C245.545 159.7 244.374 158.529 242.929 158.529Z" fill="#01213F"/>
<path d="M259.875 141.576H250.494C249.049 141.576 247.878 142.747 247.878 144.192V222.041C247.878 223.485 249.049 224.656 250.494 224.656H259.875C261.32 224.656 262.491 223.485 262.491 222.041V144.192C262.491 142.747 261.32 141.576 259.875 141.576Z" fill="#01213F"/>
<path d="M51.8155 212.597C51.7664 212.592 51.7192 212.576 51.6777 212.549C51.6361 212.522 51.6013 212.486 51.576 212.444C51.5294 212.378 51.5103 212.296 51.5229 212.215C51.5355 212.135 51.5788 212.063 51.6435 212.014L52.3865 211.474C52.4529 211.427 52.5348 211.408 52.615 211.421C52.6952 211.433 52.7674 211.477 52.8163 211.541C52.841 211.574 52.8588 211.611 52.8688 211.65C52.8788 211.69 52.8807 211.731 52.8744 211.771C52.8681 211.811 52.8537 211.849 52.8321 211.884C52.8105 211.918 52.7821 211.948 52.7487 211.971L52.0058 212.512C51.9535 212.56 51.8866 212.591 51.8155 212.597Z" fill="#868686"/>
<path d="M55.0512 210.24C55.0019 210.241 54.9532 210.229 54.9093 210.207C54.8654 210.184 54.8277 210.151 54.7995 210.111C54.7529 210.044 54.7338 209.962 54.7464 209.882C54.759 209.802 54.8023 209.73 54.867 209.681L56.3652 208.594C56.3979 208.57 56.4349 208.553 56.4742 208.544C56.5134 208.534 56.5542 208.533 56.5941 208.539C56.634 208.545 56.6723 208.559 56.7068 208.58C56.7412 208.601 56.7712 208.629 56.795 208.662C56.8188 208.694 56.8359 208.731 56.8454 208.771C56.8549 208.81 56.8565 208.851 56.8502 208.891C56.844 208.931 56.8299 208.969 56.8088 209.003C56.7878 209.038 56.7601 209.068 56.7275 209.092L55.26 210.178C55.231 210.202 55.1976 210.219 55.1618 210.23C55.1259 210.24 55.0884 210.244 55.0512 210.24ZM59.0361 207.336C58.9878 207.335 58.9403 207.323 58.8976 207.301C58.8548 207.279 58.8181 207.246 58.7905 207.207C58.7442 207.141 58.7254 207.06 58.738 206.981C58.7506 206.902 58.7937 206.831 58.858 206.783L60.3562 205.69C60.4217 205.644 60.5026 205.625 60.5818 205.637C60.661 205.65 60.732 205.693 60.7799 205.758C60.8045 205.79 60.8224 205.827 60.8324 205.866C60.8424 205.906 60.8443 205.947 60.838 205.987C60.8317 206.027 60.8173 206.066 60.7957 206.1C60.7741 206.134 60.7457 206.164 60.7123 206.187L59.2203 207.274C59.1678 207.315 59.1028 207.337 59.0361 207.336ZM63.0271 204.431C62.9786 204.431 62.9309 204.42 62.8873 204.398C62.8438 204.377 62.8055 204.346 62.7754 204.308C62.7287 204.242 62.7097 204.16 62.7223 204.08C62.7349 204 62.7781 203.928 62.8429 203.879L64.3411 202.786C64.407 202.738 64.4893 202.718 64.57 202.731C64.6506 202.743 64.7228 202.787 64.7709 202.853C64.8189 202.919 64.8388 203.002 64.8261 203.082C64.8134 203.163 64.7693 203.235 64.7033 203.283L63.2052 204.376C63.1564 204.423 63.0941 204.453 63.0271 204.462V204.431ZM67.012 201.527C66.9481 201.526 66.8861 201.505 66.8348 201.466C66.7835 201.428 66.7454 201.375 66.7258 201.314C66.7062 201.253 66.7061 201.188 66.7255 201.127C66.7448 201.066 66.7828 201.013 66.8339 200.974L68.3321 199.888C68.3643 199.864 68.4009 199.848 68.4396 199.838C68.4784 199.829 68.5185 199.827 68.5579 199.834C68.5972 199.84 68.6349 199.854 68.6689 199.875C68.7028 199.896 68.7323 199.923 68.7557 199.955C68.7791 199.987 68.7959 200.024 68.8052 200.063C68.8144 200.102 68.816 200.142 68.8097 200.181C68.8034 200.22 68.7895 200.258 68.7686 200.292C68.7478 200.326 68.7204 200.356 68.6882 200.379L67.1962 201.472C67.1417 201.508 67.0775 201.528 67.012 201.527ZM71.003 198.629C70.9539 198.628 70.9057 198.616 70.862 198.594C70.8184 198.572 70.7805 198.539 70.7512 198.5C70.7277 198.467 70.7109 198.43 70.7018 198.39C70.6928 198.351 70.6916 198.31 70.6985 198.27C70.7053 198.23 70.72 198.192 70.7417 198.157C70.7634 198.123 70.7917 198.094 70.8249 198.07L72.3169 196.983C72.3496 196.96 72.3866 196.943 72.4259 196.933C72.4651 196.924 72.5059 196.922 72.5458 196.928C72.5857 196.934 72.624 196.949 72.6585 196.97C72.693 196.991 72.7229 197.018 72.7467 197.051C72.7705 197.084 72.7876 197.121 72.7971 197.16C72.8066 197.199 72.8082 197.24 72.802 197.28C72.7957 197.32 72.7816 197.358 72.7606 197.393C72.7395 197.427 72.7118 197.457 72.6792 197.481L71.181 198.568C71.129 198.605 71.0671 198.627 71.003 198.629ZM74.994 195.725C74.9446 195.726 74.8959 195.714 74.852 195.692C74.8081 195.669 74.7704 195.636 74.7422 195.596C74.6956 195.529 74.6766 195.447 74.6892 195.367C74.7018 195.287 74.745 195.215 74.8098 195.166L76.3079 194.079C76.3734 194.033 76.4543 194.014 76.5335 194.027C76.6127 194.039 76.6838 194.082 76.7316 194.147C76.7563 194.179 76.7741 194.216 76.7841 194.256C76.7941 194.295 76.796 194.336 76.7897 194.376C76.7834 194.416 76.769 194.455 76.7474 194.489C76.7258 194.524 76.6975 194.553 76.664 194.577L75.172 195.663C75.1214 195.704 75.0586 195.725 74.994 195.725ZM78.9788 192.821C78.9305 192.821 78.8827 192.809 78.8399 192.787C78.7971 192.764 78.7604 192.732 78.7332 192.692C78.7085 192.659 78.6907 192.622 78.6807 192.583C78.6707 192.543 78.6688 192.502 78.6751 192.462C78.6814 192.422 78.6958 192.384 78.7174 192.349C78.739 192.315 78.7674 192.285 78.8008 192.262L80.2928 191.175C80.3587 191.127 80.4411 191.107 80.5217 191.12C80.6023 191.132 80.6745 191.177 80.7226 191.243C80.7706 191.309 80.7905 191.391 80.7778 191.471C80.7652 191.552 80.721 191.624 80.655 191.672L79.1569 192.759C79.1034 192.791 79.0406 192.804 78.9788 192.796V192.821ZM82.9698 189.916C82.9054 189.916 82.8426 189.896 82.7903 189.858C82.738 189.821 82.699 189.768 82.6786 189.706C82.6582 189.645 82.6576 189.579 82.6768 189.518C82.696 189.456 82.7341 189.402 82.7856 189.364L84.2838 188.271C84.3497 188.223 84.4321 188.203 84.5127 188.216C84.5933 188.228 84.6655 188.272 84.7136 188.338C84.7616 188.404 84.7815 188.487 84.7688 188.567C84.7562 188.648 84.712 188.72 84.646 188.768L83.1479 189.855C83.0973 189.895 83.0345 189.917 82.9698 189.916ZM86.9547 187.012C86.8908 187.011 86.8288 186.99 86.7776 186.952C86.7263 186.913 86.6881 186.86 86.6685 186.799C86.6489 186.738 86.6488 186.673 86.6682 186.612C86.6876 186.551 86.7255 186.498 86.7766 186.46L88.2686 185.373C88.301 185.348 88.3379 185.33 88.3774 185.32C88.4168 185.31 88.4578 185.308 88.498 185.315C88.5382 185.321 88.5766 185.335 88.6111 185.357C88.6455 185.379 88.6753 185.407 88.6984 185.44C88.7447 185.506 88.7636 185.587 88.7509 185.666C88.7383 185.745 88.6953 185.816 88.6309 185.864L87.1327 186.957C87.0806 186.993 87.0183 187.013 86.9547 187.012ZM90.9457 184.108C90.8812 184.108 90.8185 184.088 90.7662 184.05C90.7139 184.012 90.6748 183.959 90.6544 183.898C90.6341 183.837 90.6334 183.771 90.6526 183.709C90.6719 183.648 90.7099 183.594 90.7615 183.555L92.2596 182.469C92.292 182.444 92.3289 182.426 92.3684 182.416C92.4078 182.406 92.4488 182.404 92.489 182.41C92.5292 182.417 92.5676 182.431 92.6021 182.453C92.6365 182.474 92.6663 182.503 92.6894 182.536C92.7361 182.602 92.7551 182.684 92.7425 182.765C92.7299 182.845 92.6867 182.917 92.6219 182.966L91.1237 184.053C91.0712 184.088 91.0092 184.108 90.9457 184.108ZM94.9305 181.21C94.8824 181.209 94.835 181.197 94.7924 181.175C94.7497 181.152 94.7129 181.12 94.685 181.081C94.6603 181.049 94.6424 181.012 94.6324 180.972C94.6224 180.933 94.6205 180.892 94.6268 180.852C94.6331 180.811 94.6475 180.773 94.6691 180.738C94.6907 180.704 94.7191 180.674 94.7525 180.651L96.2445 179.564C96.2771 179.54 96.3142 179.523 96.3534 179.514C96.3927 179.504 96.4335 179.503 96.4734 179.509C96.5134 179.515 96.5517 179.529 96.5861 179.55C96.6206 179.571 96.6506 179.599 96.6743 179.632C96.7209 179.698 96.74 179.78 96.7274 179.86C96.7148 179.941 96.6715 180.013 96.6068 180.062L95.1147 181.13C95.0625 181.174 94.9984 181.202 94.9305 181.21ZM98.9215 178.306C98.8722 178.306 98.8235 178.295 98.7796 178.273C98.7357 178.25 98.698 178.217 98.6698 178.177C98.6232 178.11 98.6041 178.028 98.6167 177.948C98.6293 177.868 98.6726 177.796 98.7373 177.747L100.236 176.66C100.268 176.636 100.305 176.619 100.344 176.61C100.384 176.6 100.424 176.599 100.464 176.605C100.504 176.611 100.543 176.625 100.577 176.646C100.612 176.667 100.642 176.695 100.665 176.728C100.689 176.76 100.706 176.797 100.716 176.837C100.725 176.876 100.727 176.917 100.721 176.957C100.714 176.996 100.7 177.035 100.679 177.069C100.658 177.104 100.63 177.134 100.598 177.157L99.0996 178.244C99.049 178.284 98.9862 178.306 98.9215 178.306ZM102.906 175.401C102.858 175.401 102.811 175.389 102.768 175.367C102.725 175.344 102.688 175.312 102.661 175.272C102.636 175.241 102.618 175.204 102.609 175.165C102.599 175.126 102.597 175.086 102.603 175.046C102.609 175.006 102.624 174.968 102.645 174.934C102.667 174.901 102.695 174.871 102.728 174.849L104.22 173.756C104.286 173.708 104.369 173.688 104.449 173.701C104.53 173.713 104.602 173.757 104.65 173.823C104.698 173.889 104.718 173.972 104.705 174.052C104.693 174.133 104.649 174.205 104.583 174.253L103.091 175.34C103.038 175.38 102.973 175.402 102.906 175.401ZM106.897 172.497C106.849 172.498 106.801 172.487 106.757 172.465C106.713 172.444 106.675 172.413 106.646 172.374C106.599 172.308 106.58 172.226 106.593 172.146C106.605 172.066 106.648 171.993 106.713 171.945L108.211 170.852C108.277 170.804 108.36 170.784 108.44 170.796C108.521 170.809 108.593 170.853 108.641 170.919C108.689 170.985 108.709 171.067 108.696 171.148C108.684 171.229 108.64 171.301 108.574 171.349L107.075 172.442C107.023 172.478 106.961 172.497 106.897 172.497ZM110.882 169.593C110.835 169.592 110.788 169.581 110.745 169.56C110.703 169.539 110.666 169.508 110.637 169.47C110.613 169.438 110.596 169.4 110.586 169.361C110.577 169.322 110.575 169.281 110.581 169.241C110.587 169.201 110.602 169.163 110.623 169.128C110.644 169.094 110.671 169.064 110.704 169.04L112.196 167.954C112.228 167.924 112.265 167.902 112.306 167.888C112.347 167.875 112.391 167.87 112.434 167.874C112.476 167.878 112.518 167.891 112.556 167.912C112.593 167.933 112.626 167.962 112.651 167.997C112.677 168.032 112.695 168.072 112.704 168.114C112.713 168.156 112.714 168.199 112.705 168.242C112.696 168.284 112.679 168.324 112.653 168.359C112.628 168.394 112.596 168.423 112.558 168.445L111.066 169.538C111.012 169.574 110.948 169.593 110.882 169.593ZM114.873 166.695C114.824 166.694 114.776 166.682 114.732 166.66C114.689 166.637 114.651 166.605 114.622 166.566C114.575 166.499 114.556 166.418 114.568 166.337C114.581 166.257 114.624 166.185 114.689 166.136L116.187 165.049C116.22 165.025 116.257 165.008 116.296 164.999C116.335 164.989 116.376 164.988 116.416 164.994C116.456 165 116.494 165.014 116.529 165.035C116.563 165.056 116.593 165.084 116.617 165.117C116.664 165.183 116.683 165.265 116.67 165.345C116.657 165.426 116.614 165.498 116.549 165.547L115.051 166.633C114.999 166.671 114.937 166.692 114.873 166.695Z" fill="#868686"/>
<path d="M118.858 163.791C118.81 163.789 118.763 163.777 118.721 163.754C118.678 163.732 118.641 163.7 118.613 163.662C118.589 163.629 118.571 163.592 118.562 163.553C118.552 163.513 118.551 163.473 118.557 163.433C118.563 163.393 118.577 163.355 118.599 163.32C118.62 163.286 118.647 163.256 118.68 163.232L119.423 162.692C119.459 162.664 119.502 162.646 119.546 162.637C119.591 162.629 119.637 162.631 119.681 162.642L120.571 162.87C120.653 162.89 120.723 162.942 120.766 163.014C120.809 163.086 120.822 163.172 120.801 163.253C120.781 163.335 120.729 163.405 120.657 163.448C120.585 163.491 120.499 163.504 120.418 163.484L119.669 163.293L119.055 163.748C118.995 163.782 118.927 163.797 118.858 163.791Z" fill="#868686"/>
<path d="M187.368 180.737H187.319L185.575 180.289C185.494 180.268 185.424 180.217 185.381 180.145C185.338 180.073 185.325 179.986 185.345 179.905C185.365 179.824 185.417 179.754 185.489 179.71C185.561 179.667 185.647 179.654 185.729 179.675L187.424 180.111C187.475 180.111 187.526 180.125 187.571 180.151C187.617 180.177 187.654 180.214 187.681 180.258C187.704 180.29 187.719 180.327 187.726 180.365C187.734 180.403 187.733 180.443 187.724 180.481C187.716 180.519 187.699 180.555 187.676 180.586C187.653 180.618 187.623 180.644 187.589 180.663C187.522 180.704 187.447 180.73 187.368 180.737ZM182.665 179.509H182.585L180.792 179.049C180.752 179.038 180.714 179.021 180.681 178.996C180.647 178.971 180.619 178.94 180.598 178.904C180.576 178.869 180.562 178.829 180.556 178.788C180.55 178.747 180.552 178.705 180.562 178.665C180.572 178.624 180.59 178.587 180.615 178.553C180.64 178.52 180.671 178.492 180.706 178.47C180.742 178.449 180.781 178.435 180.822 178.429C180.864 178.422 180.905 178.424 180.946 178.435L182.739 178.895C182.82 178.905 182.894 178.947 182.945 179.011C182.996 179.075 183.019 179.157 183.009 179.239C182.999 179.32 182.957 179.395 182.893 179.445C182.828 179.496 182.746 179.519 182.665 179.509ZM190.119 179.171C190.064 179.172 190.009 179.158 189.961 179.13C189.914 179.101 189.875 179.061 189.849 179.012C189.811 178.94 189.801 178.857 189.823 178.779C189.845 178.702 189.896 178.635 189.965 178.594L191.568 177.673C191.64 177.633 191.724 177.623 191.804 177.645C191.883 177.667 191.951 177.719 191.992 177.79C192.031 177.861 192.041 177.944 192.02 178.023C191.998 178.101 191.946 178.167 191.875 178.207L190.272 179.128C190.226 179.158 190.174 179.177 190.119 179.184V179.171ZM177.882 178.275H177.802L176.009 177.814C175.928 177.794 175.858 177.742 175.815 177.67C175.771 177.598 175.759 177.512 175.779 177.431C175.799 177.349 175.851 177.279 175.923 177.236C175.995 177.193 176.081 177.18 176.163 177.2L177.956 177.661C178.037 177.671 178.111 177.712 178.162 177.777C178.213 177.841 178.236 177.923 178.226 178.005C178.216 178.086 178.174 178.16 178.11 178.211C178.045 178.262 177.963 178.285 177.882 178.275ZM173.099 177.047H173.019L171.226 176.586C171.148 176.565 171.081 176.514 171.04 176.444C170.999 176.374 170.986 176.291 171.005 176.212C171.015 176.173 171.033 176.136 171.057 176.104C171.081 176.071 171.112 176.044 171.147 176.024C171.181 176.003 171.22 175.99 171.26 175.984C171.3 175.978 171.341 175.981 171.38 175.991L173.173 176.451C173.254 176.461 173.328 176.503 173.379 176.567C173.43 176.632 173.453 176.714 173.443 176.795C173.433 176.877 173.391 176.951 173.327 177.001C173.262 177.052 173.18 177.075 173.099 177.065V177.047ZM194.405 176.721C194.349 176.722 194.295 176.708 194.247 176.68C194.199 176.652 194.16 176.611 194.135 176.562C194.095 176.491 194.085 176.407 194.107 176.329C194.128 176.251 194.18 176.184 194.251 176.144L195.854 175.223C195.889 175.203 195.928 175.189 195.969 175.184C196.009 175.179 196.051 175.182 196.09 175.192C196.13 175.203 196.167 175.222 196.199 175.247C196.231 175.273 196.258 175.304 196.277 175.34C196.316 175.411 196.325 175.494 196.303 175.572C196.281 175.65 196.23 175.716 196.161 175.757L194.552 176.678C194.508 176.707 194.457 176.724 194.405 176.728V176.721ZM168.316 175.813H168.242L166.449 175.352C166.41 175.342 166.373 175.325 166.341 175.3C166.309 175.276 166.282 175.246 166.261 175.211C166.24 175.176 166.227 175.138 166.221 175.098C166.216 175.058 166.218 175.017 166.228 174.978C166.237 174.938 166.255 174.901 166.279 174.868C166.303 174.835 166.333 174.808 166.368 174.787C166.403 174.767 166.442 174.753 166.482 174.748C166.523 174.743 166.564 174.746 166.603 174.757L168.396 175.217C168.436 175.222 168.475 175.236 168.51 175.256C168.545 175.276 168.576 175.303 168.601 175.335C168.626 175.368 168.644 175.404 168.655 175.444C168.665 175.483 168.668 175.524 168.663 175.564C168.657 175.604 168.644 175.643 168.624 175.679C168.604 175.714 168.577 175.745 168.545 175.769C168.512 175.794 168.476 175.812 168.436 175.823C168.397 175.834 168.356 175.836 168.316 175.831V175.813ZM163.533 174.585H163.459L161.666 174.124C161.585 174.104 161.515 174.052 161.472 173.98C161.428 173.908 161.416 173.822 161.436 173.741C161.456 173.659 161.508 173.589 161.58 173.546C161.652 173.503 161.738 173.49 161.82 173.51L163.613 173.971C163.653 173.976 163.692 173.989 163.727 174.009C163.762 174.03 163.793 174.057 163.818 174.089C163.843 174.121 163.861 174.158 163.872 174.197C163.882 174.236 163.885 174.277 163.88 174.318C163.874 174.358 163.861 174.397 163.841 174.432C163.821 174.467 163.794 174.498 163.762 174.523C163.729 174.548 163.693 174.566 163.653 174.577C163.614 174.587 163.573 174.59 163.533 174.585ZM198.684 174.272C198.63 174.271 198.577 174.256 198.53 174.228C198.484 174.2 198.446 174.16 198.42 174.112C198.38 174.042 198.369 173.959 198.39 173.88C198.41 173.802 198.461 173.735 198.531 173.694L200.139 172.773C200.174 172.753 200.213 172.74 200.253 172.734C200.293 172.729 200.334 172.732 200.373 172.743C200.412 172.754 200.448 172.773 200.48 172.798C200.512 172.823 200.538 172.854 200.557 172.89C200.578 172.925 200.591 172.963 200.597 173.003C200.603 173.043 200.6 173.083 200.59 173.122C200.58 173.161 200.562 173.198 200.537 173.23C200.512 173.261 200.482 173.288 200.446 173.308L198.838 174.229C198.791 174.255 198.738 174.27 198.684 174.272ZM158.774 173.351H158.701L156.908 172.89C156.826 172.87 156.756 172.818 156.713 172.746C156.67 172.674 156.657 172.588 156.677 172.506C156.698 172.425 156.75 172.355 156.822 172.312C156.894 172.269 156.98 172.256 157.061 172.276L158.854 172.737C158.936 172.747 159.009 172.79 159.059 172.855C159.11 172.92 159.132 173.002 159.121 173.084C159.111 173.165 159.068 173.239 159.003 173.289C158.938 173.339 158.856 173.361 158.774 173.351ZM153.997 172.123H153.918L152.125 171.662C152.043 171.642 151.973 171.59 151.93 171.518C151.887 171.446 151.874 171.36 151.894 171.278C151.915 171.197 151.967 171.127 152.039 171.084C152.111 171.041 152.197 171.028 152.278 171.048L154.071 171.509C154.111 171.513 154.15 171.526 154.186 171.546C154.221 171.566 154.252 171.593 154.277 171.625C154.302 171.657 154.321 171.693 154.332 171.732C154.343 171.771 154.346 171.812 154.341 171.852C154.336 171.893 154.324 171.932 154.304 171.967C154.284 172.003 154.257 172.034 154.225 172.059C154.193 172.084 154.157 172.102 154.118 172.113C154.079 172.124 154.038 172.127 153.997 172.123ZM202.995 171.822C202.94 171.821 202.887 171.806 202.841 171.778C202.794 171.75 202.756 171.71 202.731 171.662C202.71 171.628 202.696 171.589 202.69 171.549C202.685 171.51 202.687 171.469 202.697 171.43C202.708 171.391 202.726 171.355 202.75 171.323C202.775 171.291 202.806 171.264 202.841 171.245L204.45 170.324C204.485 170.303 204.523 170.29 204.563 170.285C204.604 170.279 204.644 170.282 204.683 170.293C204.722 170.304 204.759 170.323 204.79 170.348C204.822 170.373 204.848 170.405 204.867 170.44C204.888 170.475 204.902 170.513 204.907 170.553C204.913 170.593 204.911 170.633 204.9 170.672C204.89 170.711 204.872 170.748 204.847 170.78C204.823 170.811 204.792 170.838 204.757 170.858L203.148 171.779C203.093 171.807 203.032 171.82 202.97 171.816L202.995 171.822ZM149.202 170.882H149.122L147.329 170.422C147.248 170.401 147.178 170.35 147.135 170.278C147.092 170.206 147.079 170.12 147.099 170.038C147.119 169.957 147.171 169.887 147.243 169.843C147.315 169.8 147.401 169.787 147.483 169.808L149.276 170.268C149.357 170.278 149.431 170.32 149.482 170.384C149.533 170.449 149.556 170.531 149.546 170.612C149.536 170.694 149.494 170.768 149.43 170.818C149.365 170.869 149.283 170.892 149.202 170.882ZM144.419 169.654H144.339L142.546 169.194C142.468 169.172 142.401 169.121 142.36 169.051C142.319 168.981 142.306 168.898 142.325 168.819C142.335 168.78 142.353 168.743 142.377 168.711C142.401 168.679 142.432 168.652 142.467 168.631C142.501 168.61 142.54 168.597 142.58 168.591C142.62 168.586 142.661 168.588 142.7 168.598L144.493 169.059C144.574 169.069 144.648 169.11 144.699 169.175C144.75 169.239 144.773 169.321 144.763 169.403C144.753 169.484 144.711 169.558 144.647 169.609C144.582 169.66 144.5 169.683 144.419 169.673V169.654ZM207.268 169.366C207.214 169.365 207.16 169.35 207.114 169.322C207.067 169.294 207.029 169.254 207.004 169.206C206.983 169.172 206.97 169.133 206.964 169.093C206.958 169.054 206.961 169.013 206.971 168.974C206.981 168.935 206.999 168.899 207.024 168.867C207.049 168.835 207.079 168.808 207.114 168.789L208.723 167.868C208.758 167.847 208.797 167.834 208.837 167.829C208.877 167.823 208.918 167.826 208.957 167.837C208.996 167.848 209.032 167.867 209.064 167.892C209.095 167.917 209.121 167.949 209.141 167.984C209.161 168.019 209.175 168.057 209.181 168.097C209.186 168.137 209.184 168.177 209.174 168.216C209.163 168.255 209.145 168.292 209.121 168.324C209.096 168.355 209.065 168.382 209.03 168.402L207.421 169.323C207.37 169.349 207.313 169.362 207.256 169.36L207.268 169.366ZM139.624 168.414H139.55L137.751 167.954C137.673 167.932 137.607 167.881 137.566 167.81C137.526 167.74 137.515 167.657 137.536 167.579C137.545 167.54 137.562 167.503 137.586 167.471C137.61 167.439 137.639 167.412 137.674 167.391C137.708 167.371 137.746 167.357 137.786 167.351C137.825 167.346 137.866 167.348 137.904 167.358L139.703 167.818C139.744 167.824 139.783 167.837 139.818 167.857C139.853 167.877 139.884 167.904 139.909 167.937C139.934 167.969 139.952 168.006 139.962 168.045C139.973 168.084 139.976 168.125 139.971 168.165C139.965 168.206 139.952 168.245 139.932 168.28C139.912 168.315 139.885 168.346 139.852 168.371C139.82 168.396 139.783 168.414 139.744 168.424C139.705 168.435 139.664 168.438 139.624 168.432V168.414ZM134.841 167.186H134.767L132.974 166.726C132.893 166.705 132.823 166.653 132.779 166.581C132.736 166.509 132.723 166.423 132.744 166.342C132.764 166.26 132.816 166.19 132.888 166.147C132.96 166.104 133.046 166.091 133.127 166.112L134.92 166.572C135.002 166.583 135.076 166.625 135.126 166.69C135.176 166.755 135.198 166.838 135.187 166.919C135.177 167 135.134 167.074 135.069 167.124C135.004 167.174 134.922 167.197 134.841 167.186ZM211.541 166.91C211.487 166.909 211.434 166.894 211.387 166.866C211.341 166.838 211.303 166.798 211.277 166.75C211.257 166.716 211.243 166.677 211.237 166.637C211.232 166.598 211.234 166.557 211.244 166.518C211.255 166.479 211.273 166.443 211.297 166.411C211.322 166.379 211.353 166.352 211.388 166.333L212.997 165.412C213.032 165.389 213.071 165.374 213.112 165.367C213.154 165.361 213.196 165.362 213.236 165.373C213.277 165.383 213.315 165.401 213.348 165.426C213.381 165.452 213.409 165.483 213.429 165.52C213.45 165.556 213.463 165.596 213.467 165.638C213.471 165.679 213.467 165.721 213.455 165.761C213.443 165.801 213.422 165.838 213.395 165.87C213.368 165.901 213.335 165.927 213.297 165.946L211.695 166.867C211.647 166.89 211.595 166.903 211.541 166.904V166.91ZM130.057 165.952H129.984L128.191 165.491C128.11 165.471 128.04 165.419 127.996 165.347C127.953 165.275 127.94 165.189 127.961 165.108C127.981 165.026 128.033 164.956 128.105 164.913C128.177 164.87 128.263 164.857 128.344 164.877L130.137 165.338C130.178 165.343 130.217 165.356 130.252 165.377C130.287 165.397 130.318 165.424 130.343 165.456C130.367 165.488 130.386 165.525 130.396 165.564C130.407 165.604 130.41 165.645 130.404 165.685C130.399 165.725 130.386 165.764 130.366 165.799C130.345 165.835 130.318 165.865 130.286 165.89C130.254 165.915 130.217 165.933 130.178 165.944C130.139 165.954 130.098 165.957 130.057 165.952ZM125.281 164.724H125.201L123.408 164.263C123.326 164.243 123.256 164.191 123.213 164.119C123.17 164.047 123.157 163.961 123.178 163.88C123.198 163.798 123.25 163.728 123.322 163.685C123.394 163.642 123.48 163.629 123.561 163.649L125.354 164.11C125.436 164.12 125.51 164.161 125.561 164.226C125.611 164.29 125.634 164.372 125.624 164.454C125.615 164.535 125.573 164.609 125.508 164.66C125.444 164.711 125.362 164.734 125.281 164.724ZM215.827 164.46C215.772 164.461 215.717 164.446 215.67 164.418C215.622 164.39 215.583 164.349 215.557 164.3C215.519 164.229 215.51 164.146 215.531 164.068C215.553 163.99 215.604 163.924 215.674 163.883L217.282 162.962C217.317 162.941 217.356 162.928 217.396 162.923C217.436 162.917 217.477 162.92 217.516 162.931C217.555 162.942 217.591 162.961 217.623 162.986C217.654 163.011 217.681 163.043 217.7 163.078C217.74 163.149 217.75 163.233 217.728 163.311C217.706 163.39 217.654 163.456 217.583 163.496L215.981 164.417C215.932 164.438 215.88 164.449 215.827 164.448V164.46ZM220.125 162.004C220.07 162.005 220.015 161.99 219.968 161.962C219.92 161.934 219.881 161.893 219.855 161.844C219.815 161.773 219.805 161.69 219.827 161.611C219.849 161.533 219.901 161.467 219.972 161.427L221.574 160.506C221.609 160.486 221.648 160.473 221.688 160.467C221.728 160.462 221.769 160.465 221.808 160.475C221.847 160.486 221.884 160.504 221.916 160.529C221.948 160.553 221.975 160.584 221.995 160.619C222.015 160.654 222.028 160.693 222.033 160.733C222.038 160.773 222.036 160.814 222.025 160.853C222.015 160.892 221.996 160.929 221.972 160.961C221.947 160.993 221.916 161.02 221.881 161.04L220.273 161.961C220.223 161.985 220.168 161.996 220.113 161.992L220.125 162.004ZM224.423 159.548C224.369 159.548 224.316 159.533 224.269 159.505C224.223 159.476 224.185 159.436 224.159 159.388C224.119 159.318 224.108 159.235 224.129 159.157C224.149 159.079 224.2 159.012 224.27 158.971L225.878 158.05C225.913 158.029 225.952 158.016 225.992 158.011C226.032 158.005 226.073 158.008 226.112 158.019C226.151 158.03 226.187 158.049 226.219 158.074C226.25 158.099 226.277 158.131 226.296 158.166C226.317 158.201 226.33 158.239 226.336 158.279C226.342 158.319 226.339 158.36 226.329 158.399C226.319 158.437 226.301 158.474 226.276 158.506C226.251 158.538 226.22 158.564 226.185 158.584L224.577 159.505C224.519 159.532 224.456 159.543 224.392 159.536L224.423 159.548ZM228.721 157.092C228.667 157.092 228.614 157.077 228.567 157.048C228.521 157.02 228.483 156.98 228.457 156.932C228.436 156.898 228.423 156.859 228.417 156.82C228.411 156.78 228.414 156.739 228.424 156.7C228.434 156.661 228.452 156.625 228.477 156.593C228.502 156.561 228.533 156.534 228.568 156.515L230.176 155.594C230.211 155.573 230.25 155.56 230.29 155.555C230.33 155.549 230.371 155.552 230.41 155.563C230.449 155.574 230.485 155.593 230.517 155.618C230.548 155.643 230.575 155.675 230.594 155.71C230.615 155.745 230.628 155.783 230.634 155.823C230.64 155.863 230.637 155.904 230.627 155.943C230.617 155.981 230.599 156.018 230.574 156.05C230.549 156.082 230.518 156.108 230.483 156.128L228.875 157.049C228.814 157.079 228.745 157.089 228.678 157.08L228.721 157.092ZM233.019 154.636C232.965 154.636 232.912 154.621 232.865 154.592C232.819 154.564 232.781 154.524 232.755 154.476C232.734 154.442 232.721 154.403 232.715 154.364C232.709 154.324 232.712 154.283 232.722 154.244C232.732 154.205 232.75 154.169 232.775 154.137C232.8 154.105 232.831 154.078 232.866 154.059L234.474 153.138C234.509 153.118 234.548 153.105 234.588 153.099C234.628 153.094 234.669 153.097 234.708 153.107C234.747 153.118 234.784 153.136 234.816 153.161C234.848 153.185 234.875 153.216 234.895 153.251C234.915 153.286 234.928 153.325 234.933 153.365C234.939 153.405 234.936 153.446 234.925 153.485C234.915 153.524 234.897 153.561 234.872 153.593C234.847 153.625 234.816 153.652 234.781 153.672L233.173 154.593C233.108 154.625 233.035 154.636 232.964 154.624L233.019 154.636ZM237.317 152.18C237.263 152.18 237.21 152.165 237.163 152.136C237.117 152.108 237.079 152.068 237.053 152.02C237.032 151.986 237.019 151.947 237.013 151.908C237.007 151.868 237.01 151.827 237.02 151.788C237.03 151.749 237.048 151.713 237.073 151.681C237.098 151.649 237.129 151.622 237.164 151.603L238.772 150.682C238.808 150.659 238.847 150.644 238.888 150.638C238.929 150.631 238.971 150.633 239.012 150.643C239.052 150.653 239.09 150.671 239.124 150.696C239.157 150.722 239.184 150.754 239.205 150.79C239.225 150.826 239.238 150.866 239.243 150.908C239.247 150.949 239.243 150.991 239.231 151.031C239.218 151.071 239.198 151.108 239.171 151.14C239.144 151.172 239.111 151.197 239.073 151.216L237.471 152.137C237.402 152.17 237.325 152.181 237.25 152.168L237.317 152.18ZM241.615 149.724C241.56 149.724 241.506 149.709 241.458 149.681C241.411 149.653 241.372 149.613 241.345 149.564C241.307 149.493 241.298 149.41 241.319 149.332C241.341 149.254 241.392 149.188 241.462 149.147L243.07 148.226C243.105 148.205 243.144 148.192 243.184 148.187C243.224 148.181 243.265 148.184 243.304 148.195C243.343 148.206 243.379 148.225 243.411 148.25C243.442 148.275 243.469 148.307 243.488 148.342C243.528 148.413 243.538 148.497 243.516 148.575C243.494 148.654 243.442 148.72 243.371 148.76L241.769 149.681C241.696 149.717 241.614 149.728 241.535 149.712L241.615 149.724ZM245.913 147.268C245.858 147.269 245.803 147.254 245.756 147.226C245.708 147.198 245.669 147.157 245.643 147.108C245.603 147.037 245.593 146.954 245.615 146.875C245.637 146.797 245.689 146.731 245.76 146.691L247.362 145.77C247.398 145.749 247.437 145.736 247.477 145.73C247.518 145.725 247.559 145.728 247.599 145.739C247.638 145.75 247.675 145.768 247.707 145.794C247.739 145.819 247.766 145.851 247.786 145.886C247.824 145.958 247.833 146.041 247.811 146.119C247.79 146.196 247.739 146.263 247.669 146.304L246.061 147.225C246.025 147.246 245.985 147.259 245.944 147.264C245.903 147.27 245.861 147.267 245.821 147.256L245.913 147.268ZM250.211 144.812C250.157 144.812 250.104 144.797 250.057 144.768C250.011 144.74 249.973 144.7 249.947 144.652C249.907 144.581 249.897 144.498 249.919 144.419C249.941 144.341 249.993 144.275 250.064 144.235L251.666 143.314C251.701 143.293 251.74 143.28 251.78 143.275C251.82 143.269 251.861 143.272 251.9 143.283C251.939 143.294 251.975 143.313 252.007 143.338C252.038 143.363 252.065 143.395 252.084 143.43C252.105 143.465 252.118 143.503 252.124 143.543C252.13 143.583 252.127 143.624 252.117 143.663C252.107 143.701 252.089 143.738 252.064 143.77C252.039 143.802 252.008 143.828 251.973 143.848L250.365 144.769C250.325 144.792 250.281 144.806 250.236 144.811C250.19 144.817 250.144 144.813 250.101 144.8L250.211 144.812Z" fill="#868686"/>
<path d="M254.386 142.344C254.332 142.343 254.279 142.328 254.232 142.3C254.186 142.272 254.148 142.232 254.122 142.184C254.102 142.149 254.088 142.111 254.082 142.071C254.077 142.031 254.079 141.991 254.089 141.952C254.1 141.913 254.118 141.876 254.142 141.845C254.167 141.813 254.198 141.786 254.233 141.766L255.037 141.312C255.072 141.292 255.11 141.28 255.15 141.275C255.189 141.27 255.229 141.273 255.268 141.283C255.306 141.294 255.342 141.312 255.374 141.336C255.405 141.361 255.432 141.391 255.452 141.426C255.471 141.46 255.484 141.499 255.489 141.538C255.494 141.578 255.491 141.618 255.481 141.656C255.47 141.695 255.452 141.731 255.428 141.762C255.403 141.794 255.373 141.82 255.338 141.84L254.54 142.301C254.493 142.327 254.44 142.342 254.386 142.344Z" fill="#868686"/>
<path d="M54.3329 212.291C54.3329 212.79 54.1847 213.278 53.9071 213.693C53.6296 214.108 53.2351 214.432 52.7736 214.623C52.3121 214.813 51.8044 214.863 51.3147 214.765C50.8251 214.667 50.3754 214.426 50.0227 214.073C49.6701 213.719 49.4302 213.269 49.3335 212.779C49.2368 212.289 49.2877 211.782 49.4796 211.321C49.6716 210.86 49.996 210.466 50.4118 210.189C50.8276 209.913 51.3161 209.766 51.8155 209.767C52.4837 209.769 53.124 210.035 53.5959 210.508C54.0678 210.981 54.3329 211.622 54.3329 212.291Z" fill="white"/>
<path d="M51.8155 215.115C51.2551 215.116 50.707 214.951 50.2406 214.64C49.7742 214.33 49.4104 213.888 49.1954 213.37C48.9804 212.853 48.9239 212.283 49.0329 211.734C49.1419 211.184 49.4116 210.679 49.8078 210.283C50.2041 209.887 50.709 209.617 51.2586 209.508C51.8083 209.399 52.3779 209.455 52.8954 209.67C53.4128 209.885 53.8548 210.249 54.1654 210.716C54.4759 211.182 54.6411 211.73 54.6399 212.29C54.6366 213.039 54.338 213.755 53.8091 214.284C53.2801 214.813 52.5635 215.112 51.8155 215.115ZM51.8155 210.074C51.3768 210.073 50.9477 210.202 50.5824 210.445C50.217 210.687 49.932 211.033 49.7633 211.438C49.5946 211.843 49.5498 212.289 49.6346 212.719C49.7195 213.15 49.9301 213.545 50.2398 213.856C50.5496 214.166 50.9445 214.378 51.3746 214.464C51.8048 214.55 52.2508 214.506 52.6561 214.339C53.0615 214.171 53.4081 213.887 53.6519 213.523C53.8957 213.158 54.0259 212.729 54.0259 212.29C54.0259 211.704 53.7932 211.141 53.3788 210.725C52.9645 210.31 52.4023 210.076 51.8155 210.074Z" fill="#868686"/>
<path d="M119.607 165.455C120.998 165.455 122.125 164.328 122.125 162.937C122.125 161.547 120.998 160.42 119.607 160.42C118.217 160.42 117.09 161.547 117.09 162.937C117.09 164.328 118.217 165.455 119.607 165.455Z" fill="white"/>
<path d="M119.607 165.78C119.047 165.781 118.499 165.616 118.033 165.306C117.567 164.996 117.203 164.554 116.988 164.037C116.773 163.52 116.716 162.95 116.824 162.401C116.933 161.852 117.202 161.347 117.597 160.95C117.993 160.554 118.497 160.283 119.047 160.174C119.596 160.064 120.165 160.12 120.683 160.334C121.2 160.548 121.643 160.911 121.954 161.376C122.265 161.842 122.432 162.389 122.432 162.949C122.43 163.699 122.132 164.417 121.603 164.947C121.074 165.477 120.356 165.777 119.607 165.78ZM119.607 160.739C119.168 160.738 118.739 160.867 118.373 161.11C118.008 161.353 117.723 161.699 117.554 162.105C117.386 162.51 117.341 162.956 117.427 163.387C117.512 163.817 117.723 164.213 118.034 164.523C118.344 164.833 118.74 165.044 119.17 165.13C119.601 165.215 120.047 165.171 120.452 165.002C120.857 164.834 121.204 164.549 121.447 164.183C121.69 163.818 121.819 163.388 121.818 162.949C121.818 162.658 121.762 162.37 121.651 162.101C121.541 161.832 121.378 161.587 121.173 161.38C120.967 161.174 120.724 161.01 120.455 160.898C120.186 160.786 119.898 160.728 119.607 160.727V160.739Z" fill="#868686"/>
<path d="M187.393 182.954C188.783 182.954 189.91 181.826 189.91 180.436C189.91 179.046 188.783 177.919 187.393 177.919C186.002 177.919 184.875 179.046 184.875 180.436C184.875 181.826 186.002 182.954 187.393 182.954Z" fill="white"/>
<path d="M187.399 183.261C186.839 183.262 186.29 183.097 185.824 182.786C185.358 182.476 184.994 182.034 184.779 181.516C184.564 180.999 184.507 180.429 184.616 179.879C184.725 179.33 184.995 178.825 185.391 178.429C185.788 178.032 186.292 177.763 186.842 177.654C187.392 177.545 187.961 177.601 188.479 177.816C188.996 178.031 189.438 178.395 189.749 178.861C190.059 179.328 190.225 179.876 190.223 180.436C190.22 181.184 189.921 181.901 189.393 182.43C188.864 182.959 188.147 183.257 187.399 183.261ZM187.399 178.22C186.96 178.218 186.531 178.347 186.166 178.59C185.8 178.833 185.515 179.179 185.347 179.584C185.178 179.989 185.133 180.434 185.218 180.865C185.303 181.295 185.514 181.691 185.823 182.001C186.133 182.312 186.528 182.524 186.958 182.61C187.388 182.696 187.834 182.652 188.24 182.485C188.645 182.317 188.992 182.033 189.235 181.668C189.479 181.304 189.609 180.875 189.609 180.436C189.609 179.849 189.377 179.287 188.962 178.871C188.548 178.455 187.986 178.221 187.399 178.22Z" fill="#868686"/>
<path d="M255.185 144.094C256.575 144.094 257.702 142.966 257.702 141.576C257.702 140.186 256.575 139.059 255.185 139.059C253.794 139.059 252.667 140.186 252.667 141.576C252.667 142.966 253.794 144.094 255.185 144.094Z" fill="white"/>
<path d="M255.185 144.401C254.626 144.399 254.081 144.233 253.617 143.922C253.153 143.61 252.792 143.169 252.58 142.653C252.367 142.137 252.312 141.569 252.421 141.021C252.531 140.474 252.8 139.971 253.196 139.577C253.591 139.182 254.094 138.914 254.642 138.806C255.19 138.697 255.757 138.753 256.273 138.967C256.789 139.181 257.229 139.543 257.54 140.008C257.85 140.472 258.015 141.018 258.015 141.576C258.013 142.326 257.715 143.044 257.184 143.574C256.653 144.103 255.934 144.401 255.185 144.401ZM255.185 139.366C254.748 139.367 254.321 139.498 253.958 139.741C253.595 139.985 253.313 140.33 253.147 140.734C252.98 141.138 252.938 141.583 253.024 142.011C253.109 142.439 253.32 142.833 253.63 143.141C253.939 143.45 254.333 143.66 254.762 143.744C255.19 143.829 255.634 143.785 256.038 143.618C256.442 143.45 256.786 143.167 257.029 142.804C257.272 142.44 257.401 142.013 257.401 141.576C257.398 140.991 257.163 140.431 256.747 140.019C256.332 139.607 255.77 139.376 255.185 139.378V139.366Z" fill="#868686"/>
</svg>
