<svg width="24" height="24" viewBox="0 0 24 24" fill="none" xmlns="http://www.w3.org/2000/svg">
<path fill-rule="evenodd" clip-rule="evenodd" d="M18.8657 11.0531C19.6399 11.1486 20.3749 11.3704 21.0495 11.6974C21.8511 12.086 22.9357 11.5735 22.726 10.7076C21.8225 6.97755 18.7787 4.00241 15.0065 3.20874C17.0488 5.29561 18.4435 8.01873 18.8657 11.0531ZM11.7504 3.07739C8.1712 3.52356 5.17933 5.86128 3.80672 9.05866C4.19923 9.01991 4.5973 9.00008 5 9.00008C8.35131 9.00008 11.3817 10.3739 13.5589 12.589C14.4864 11.8269 15.6133 11.2986 16.8495 11.0942C16.3187 7.76795 14.421 4.8977 11.7504 3.07739ZM5 11.0001C7.8316 11.0001 10.3883 12.177 12.2077 14.0683C11.7947 14.6755 11.4747 15.3511 11.2682 16.0745C9.99808 15.3891 8.54447 15.0001 7 15.0001C5.71847 15.0001 4.49949 15.2679 3.39601 15.7507C3.13848 14.8743 3 13.9511 3 13.0001C3 12.3742 3.05751 11.7617 3.16752 11.1676C3.76159 11.0576 4.37408 11.0001 5 11.0001ZM11.0047 18.258C11.0408 19.2559 11.2859 20.2006 11.6974 21.0495C12.086 21.8512 11.5734 22.9358 10.7075 22.7261C7.88266 22.0419 5.49076 20.1301 4.15148 17.604C5.02167 17.2158 5.98564 17.0001 7 17.0001C8.48929 17.0001 9.86995 17.4652 11.0047 18.258Z" fill="#01213F"/>
</svg>
