<svg width="24" height="24" viewBox="0 0 24 24" fill="none" xmlns="http://www.w3.org/2000/svg">
<path fill-rule="evenodd" clip-rule="evenodd" d="M13 0H11V2.07089C7.60771 2.55612 5 5.47353 5 9L7.33333 22H16.6667L19 9C19 6.2076 17.3649 3.7971 15 2.67363V4.99963C16.1738 5.88134 16.947 7.26766 16.9974 8.83654L16.4136 12.0893C16.2875 12.0319 16.1475 12 16 12C15.4477 12 15 12.4477 15 13C15 13.5523 15.4477 14 16 14C16.0239 14 16.0476 13.9992 16.071 13.9975L15.7036 16.0447C15.296 16.171 15 16.5509 15 17C15 17.3226 15.1528 17.6095 15.3899 17.7924L14.9937 20H14C14.5523 20 15 19.5523 15 19C15 18.4477 14.5523 18 14 18C13.4477 18 13 18.4477 13 19C13 19.5523 13.4477 20 14 20H10C10.5523 20 11 19.5523 11 19C11 18.4477 10.5523 18 10 18C9.44772 18 9 18.4477 9 19C9 19.5523 9.44772 20 10 20H9.00632L8.61008 17.7924C8.84723 17.6095 9 17.3226 9 17C9 16.5509 8.70396 16.171 8.29639 16.0447L7.92895 13.9975C7.95242 13.9992 7.97611 14 8 14C8.55228 14 9 13.5523 9 13C9 12.4477 8.55228 12 8 12C7.85251 12 7.71248 12.0319 7.58644 12.0893L7.00262 8.83654C7.07797 6.49059 8.76936 4.55281 11 4.10002V10H13V4.10002V2.07089V0ZM14 16C14.5523 16 15 15.5523 15 15C15 14.4477 14.5523 14 14 14C13.4477 14 13 14.4477 13 15C13 15.5523 13.4477 16 14 16ZM11 15C11 15.5523 10.5523 16 10 16C9.44772 16 9 15.5523 9 15C9 14.4477 9.44772 14 10 14C10.5523 14 11 14.4477 11 15ZM12 18C12.5523 18 13 17.5523 13 17C13 16.4477 12.5523 16 12 16C11.4477 16 11 16.4477 11 17C11 17.5523 11.4477 18 12 18ZM12 14C12.5523 14 13 13.5523 13 13C13 12.4477 12.5523 12 12 12C11.4477 12 11 12.4477 11 13C11 13.5523 11.4477 14 12 14Z" fill="#01213F"/>
</svg>
