<svg width="18" height="15" viewBox="0 0 18 15" fill="none" xmlns="http://www.w3.org/2000/svg">
<path fill-rule="evenodd" clip-rule="evenodd" d="M0 14V7L1.58555 1.45056C1.83087 0.591955 2.61564 0 3.5086 0H6H12H14.4914C15.3844 0 16.1691 0.591955 16.4144 1.45056L18 7V14C18 14.55 17.55 15 17 15H16C15.45 15 15 14.55 15 14V13H3V14C3 14.55 2.55 15 2 15H1C0.45 15 0 14.55 0 14ZM3.5 11C2.67 11 2 10.33 2 9.5C2 8.67 2.67 8 3.5 8C4.33 8 5 8.67 5 9.5C5 10.33 4.33 11 3.5 11ZM14.5 11C13.67 11 13 10.33 13 9.5C13 8.67 13.67 8 14.5 8C15.33 8 16 8.67 16 9.5C16 10.33 15.33 11 14.5 11ZM15.3485 5H2.65146L3.5086 2H14.4914L15.3485 5Z" fill="#01213F"/>
</svg>
