<svg width="123" height="37" viewBox="0 0 123 37" fill="none" xmlns="http://www.w3.org/2000/svg">
<g clip-path="url(#clip0_15_244)">
<path d="M37.0474 28.2971H32.6881V25.8601H36.2018C36.516 25.8601 36.8271 25.7963 37.1174 25.6723C37.4077 25.5483 37.6714 25.3666 37.8936 25.1374C38.1157 24.9083 38.292 24.6363 38.4122 24.3369C38.5324 24.0376 38.5943 23.7167 38.5943 23.3927C38.5943 23.0687 38.5324 22.7478 38.4122 22.4484C38.292 22.1491 38.1157 21.8771 37.8936 21.6479C37.6714 21.4188 37.4077 21.2371 37.1174 21.1131C36.8271 20.9891 36.516 20.9252 36.2018 20.9252H32.6881V18.6662H36.9064C37.5409 18.6662 38.1494 18.4063 38.5981 17.9435C39.0468 17.4808 39.2988 16.8532 39.2988 16.1988V15.7923C39.2988 15.1379 39.0468 14.5103 38.5981 14.0476C38.1494 13.5848 37.5409 13.3249 36.9064 13.3249H28.7499C28.3023 13.3249 27.8729 13.5083 27.5564 13.8347C27.2398 14.1612 27.062 14.604 27.062 15.0657V31.8898C27.0614 32.1188 27.1046 32.3456 27.1892 32.5574C27.2738 32.7691 27.398 32.9616 27.5548 33.1237C27.7116 33.2858 27.8979 33.4145 28.103 33.5022C28.308 33.59 28.5279 33.6352 28.7499 33.6352H37.0474C37.3616 33.6352 37.6727 33.5714 37.9629 33.4474C38.2532 33.3234 38.517 33.1416 38.7391 32.9125C38.9613 32.6834 39.1375 32.4114 39.2577 32.112C39.378 31.8126 39.4399 31.4918 39.4399 31.1677V30.7613C39.439 30.1074 39.1866 29.4806 38.738 29.0186C38.2894 28.5566 37.6814 28.2971 37.0474 28.2971Z" fill="#01213F"/>
<path d="M56.4056 13.3288H54.3726C53.9538 13.3287 53.5471 13.4734 53.2173 13.7396C52.8875 14.0058 52.6537 14.3783 52.5531 14.7975L49.6708 26.8173L46.7885 14.7975C46.6879 14.3783 46.4541 14.0058 46.1243 13.7396C45.7945 13.4734 45.3878 13.3287 44.969 13.3288H42.9385C42.6447 13.3287 42.3549 13.3999 42.0926 13.5366C41.8304 13.6734 41.6029 13.8718 41.4287 14.1158C41.2545 14.3599 41.1384 14.6428 41.0897 14.9417C41.0411 15.2406 41.0612 15.5471 41.1486 15.8365L46.113 32.2762C46.2315 32.6695 46.4688 33.0134 46.7903 33.2579C47.1117 33.5023 47.5004 33.6345 47.8998 33.6352H51.4412C51.841 33.6352 52.2304 33.5034 52.5524 33.259C52.8744 33.0146 53.1122 32.6705 53.2312 32.2768L58.1956 15.8371C58.2829 15.5477 58.303 15.2412 58.2544 14.9423C58.2057 14.6433 58.0896 14.3604 57.9154 14.1163C57.7412 13.8722 57.5138 13.6737 57.2515 13.5369C56.9893 13.4001 56.6995 13.3288 56.4056 13.3288Z" fill="#01213F"/>
<path d="M69.4994 15.0443C69.3419 14.5456 69.0354 14.111 68.6239 13.8029C68.2123 13.4947 67.7168 13.3288 67.2082 13.3288H64.4078C63.8992 13.3288 63.4037 13.4947 62.9922 13.8029C62.5806 14.111 62.2742 14.5456 62.1167 15.0443L56.7141 32.1463C56.66 32.3169 56.6458 32.4983 56.6728 32.6757C56.6998 32.853 56.7672 33.0212 56.8694 33.1665C56.9717 33.3118 57.1059 33.4301 57.261 33.5115C57.4161 33.593 57.5877 33.6354 57.7618 33.6352H61.4449C61.6877 33.6351 61.9237 33.5522 62.1162 33.3996C62.3088 33.247 62.447 33.0331 62.5096 32.7911L62.966 31.0243H68.6481L69.1052 32.7911C69.1676 33.0331 69.3057 33.247 69.4981 33.3997C69.6905 33.5523 69.9265 33.6351 70.1692 33.6352H73.8518C74.0257 33.6352 74.1972 33.5928 74.3521 33.5113C74.5071 33.4298 74.6412 33.3117 74.7433 33.1665C74.8455 33.0213 74.9128 32.8532 74.9398 32.676C74.9668 32.4988 74.9528 32.3175 74.8988 32.1469L69.4994 15.0443ZM67.2548 26.3822H64.3587C64.3364 26.3823 64.3144 26.3773 64.2943 26.3675C64.2741 26.3577 64.2564 26.3433 64.2423 26.3255C64.2282 26.3077 64.2182 26.2869 64.213 26.2645C64.2077 26.2422 64.2074 26.219 64.212 26.1965L65.6601 19.0312C65.6674 18.9967 65.6859 18.9659 65.7125 18.9438C65.7391 18.9217 65.7723 18.9097 65.8064 18.9097C65.8406 18.9097 65.8738 18.9217 65.9004 18.9438C65.927 18.9659 65.9455 18.9967 65.9528 19.0312L67.4009 26.1965C67.4055 26.2189 67.4052 26.2421 67.4 26.2644C67.3948 26.2867 67.3848 26.3075 67.3708 26.3253C67.3568 26.3431 67.3391 26.3574 67.3191 26.3673C67.299 26.3771 67.2771 26.3822 67.2548 26.3822Z" fill="#01213F"/>
<path d="M85.5805 28.0068H82.1177V16.2293C82.1067 15.4674 81.8055 14.7407 81.2792 14.2059C80.7529 13.6712 80.0438 13.3715 79.305 13.3715C78.5662 13.3715 77.8571 13.6712 77.3308 14.2059C76.8045 14.7407 76.5033 15.4674 76.4923 16.2293V31.8943C76.4923 32.3559 76.6701 32.7985 76.9865 33.1248C77.3029 33.4512 77.7321 33.6345 78.1796 33.6345H85.5774C86.3009 33.6345 86.9948 33.3381 87.5064 32.8105C88.018 32.2828 88.3054 31.5672 88.3054 30.821C88.3056 30.0752 88.0187 29.3599 87.5077 28.8322C86.9968 28.3045 86.3036 28.0077 85.5805 28.0068Z" fill="#01213F"/>
<path d="M123 12.3775C123 5.5524 117.616 0 110.998 0C104.38 0 98.9972 5.5524 98.9972 12.3775V26.151C98.9972 26.6573 98.8022 27.1429 98.4551 27.5009C98.108 27.8589 97.6371 28.0601 97.1462 28.0601C96.6553 28.0601 96.1845 27.8589 95.8374 27.5009C95.4902 27.1429 95.2952 26.6573 95.2952 26.151V15.2267C95.3008 14.8453 95.2327 14.4665 95.095 14.1125C94.9573 13.7584 94.7528 13.4361 94.4932 13.1644C94.2336 12.8926 93.9242 12.6768 93.583 12.5295C93.2418 12.3822 92.8757 12.3063 92.5058 12.3063C92.1359 12.3063 91.7697 12.3822 91.4285 12.5295C91.0873 12.6768 90.7779 12.8926 90.5184 13.1644C90.2588 13.4361 90.0542 13.7584 89.9165 14.1125C89.7788 14.4665 89.7108 14.8453 89.7163 15.2267V26.151C89.7163 28.1831 90.4991 30.132 91.8923 31.5689C93.2856 33.0058 95.1752 33.8131 97.1456 33.8131C99.1159 33.8131 101.006 33.0058 102.399 31.5689C103.792 30.132 104.575 28.1831 104.575 26.151V12.3775C104.575 10.6209 105.251 8.9363 106.456 7.69422C107.66 6.45214 109.294 5.75434 110.997 5.75434C112.7 5.75434 114.333 6.45214 115.538 7.69422C116.742 8.9363 117.419 10.6209 117.419 12.3775V15.5189C117.417 16.1215 117.184 16.6989 116.77 17.1248C116.357 17.5506 115.797 17.7904 115.213 17.7916H115.182C114.605 17.7909 114.051 17.554 113.643 17.133C113.235 16.7119 113.005 16.141 113.005 15.5456C113.003 14.9203 113.239 14.3194 113.662 13.8716C114.178 13.3242 114.461 12.5881 114.45 11.8253C114.439 11.0624 114.135 10.3353 113.604 9.80388C113.073 9.27243 112.36 8.98019 111.62 8.99146C110.88 9.00272 110.175 9.31656 109.66 9.86394C108.224 11.3837 107.422 13.4232 107.426 15.5456C107.423 17.4235 108.064 19.242 109.235 20.6798C108.287 21.8455 107.682 23.2658 107.489 24.7741C107.297 26.2824 107.526 27.8159 108.149 29.1948C108.772 30.5737 109.763 31.7407 111.007 32.5587C112.251 33.3767 113.695 33.8119 115.17 33.8131C119.073 33.8131 122.335 30.7872 122.846 26.8926L122.926 26.7744L122.936 25.89C122.964 23.995 122.333 22.1524 121.158 20.6954C122.348 19.2498 123 17.4151 123 15.5189V12.3775ZM117.339 25.8517C117.327 26.4383 117.091 26.9963 116.683 27.4054C116.275 27.8144 115.728 28.0417 115.159 28.0381C114.59 28.0345 114.045 27.8004 113.642 27.3862C113.239 26.9721 113.01 26.4112 113.005 25.8244C113.005 25.2233 113.236 24.6468 113.647 24.2202C114.057 23.7936 114.615 23.5515 115.197 23.5466C115.725 23.5505 116.232 23.7513 116.627 24.1119C117.021 24.4725 117.276 24.9683 117.343 25.5075L117.339 25.8517Z" fill="#01213F"/>
<path d="M20.5771 17.7474V28.2964C20.5771 30.1489 19.7121 31.8489 18.3314 32.7066L12.3288 36.4344C11.7521 36.8007 11.0889 36.9966 10.4117 37.0007C9.73442 37.0048 9.06907 36.817 8.48823 36.4578L2.28418 32.6956C0.881436 31.8456 0 31.3119 0 29.4418V17.7474C0 14.9995 1.87431 12.7729 4.18619 12.7729H7.28129C7.50391 12.773 7.72285 12.8315 7.91745 12.943C8.11206 13.0546 8.27592 13.2153 8.3936 13.4102C8.51127 13.6051 8.57887 13.8277 8.59003 14.0571C8.60119 14.2864 8.55554 14.5148 8.45738 14.7209L7.60302 16.5072C7.53424 16.6517 7.43225 16.7766 7.30595 16.8711C7.17964 16.9656 7.03285 17.0268 6.87835 17.0494L2.80234 17.6617C2.62401 17.6878 2.45636 17.765 2.31842 17.8845C2.18049 18.004 2.07779 18.1609 2.02199 18.3375C1.96619 18.5142 1.95953 18.7034 2.00276 18.8837C2.04599 19.0641 2.13738 19.2283 2.26655 19.3578L5.21558 22.3219C5.32747 22.434 5.41117 22.5725 5.45944 22.7255C5.50771 22.8785 5.5191 23.0413 5.49261 23.1998L4.80005 27.388C4.76982 27.5704 4.78966 27.7579 4.85734 27.9293C4.92502 28.1007 5.03783 28.2492 5.18303 28.3579C5.32823 28.4667 5.50003 28.5314 5.67901 28.5447C5.85799 28.5581 6.03702 28.5195 6.19587 28.4334L9.84186 26.4575C9.97993 26.3823 10.1337 26.343 10.2898 26.343C10.4459 26.343 10.5997 26.3823 10.7378 26.4575L14.3831 28.4334C14.5421 28.5196 14.7212 28.5582 14.9002 28.545C15.0793 28.5317 15.2512 28.467 15.3966 28.3583C15.5419 28.2495 15.6548 28.1011 15.7226 27.9296C15.7904 27.7581 15.8104 27.5705 15.7802 27.388L15.0833 23.1998C15.0574 23.0411 15.0693 22.8783 15.1178 22.7254C15.1664 22.5725 15.2503 22.4341 15.3622 22.3219L18.3131 19.3578C18.4423 19.2282 18.5337 19.064 18.5769 18.8836C18.6201 18.7032 18.6133 18.5139 18.5575 18.3373C18.5016 18.1606 18.3988 18.0037 18.2608 17.8843C18.1228 17.7649 17.9551 17.6877 17.7767 17.6617L13.7007 17.05C13.5461 17.0277 13.3992 16.9666 13.2728 16.8721C13.1465 16.7775 13.0446 16.6525 12.976 16.5079L12.121 14.7222C12.0231 14.5162 11.9775 14.2878 11.9888 14.0586C12 13.8294 12.0675 13.6069 12.1851 13.4121C12.3027 13.2173 12.4664 13.0565 12.6608 12.9449C12.8552 12.8333 13.074 12.7746 13.2965 12.7742H16.3928C18.7047 12.7729 20.5771 14.9995 20.5771 17.7474Z" fill="url(#paint0_linear_15_244)"/>
</g>
<defs>
<linearGradient id="paint0_linear_15_244" x1="15.077" y1="13.9969" x2="7.99916" y2="26.5391" gradientUnits="userSpaceOnUse">
<stop stop-color="#FFC71F"/>
<stop offset="1" stop-color="#FFB522"/>
</linearGradient>
<clipPath id="clip0_15_244">
<rect width="123" height="37" fill="white"/>
</clipPath>
</defs>
</svg>
