<svg width="23" height="26" viewBox="0 0 23 26" fill="none" xmlns="http://www.w3.org/2000/svg">
<path d="M23 5.33851V16.6595C23 18.6475 22.0328 20.4721 20.4899 21.3945L13.7806 25.3927C13.1363 25.7855 12.3954 25.9956 11.6387 26C10.8821 26.0045 10.1387 25.8031 9.48971 25.4179L2.55031 21.3806C0.986334 20.4683 0 19.8957 0 17.8887V5.33851C0 2.38958 2.09508 0 4.67919 0H8.13869C8.38781 0.000153366 8.63279 0.0631507 8.85052 0.183048C9.06824 0.302946 9.25152 0.475791 9.38307 0.685277C9.51463 0.894763 9.59012 1.13398 9.60242 1.38037C9.61472 1.62675 9.56342 1.87217 9.45337 2.09349L8.49701 4.0102C8.42017 4.16522 8.30623 4.2993 8.1651 4.40075C8.02397 4.5022 7.85994 4.56796 7.68728 4.59228L3.13242 5.24886C2.93388 5.27775 2.74744 5.36099 2.59412 5.4892C2.44081 5.61741 2.32673 5.7855 2.26474 5.97449C2.20276 6.16348 2.19534 6.36586 2.24332 6.5588C2.2913 6.75174 2.39277 6.92758 2.53629 7.06646L5.83257 10.2477C5.95754 10.3682 6.051 10.5169 6.10488 10.6811C6.15876 10.8454 6.17143 11.0201 6.14179 11.1903L5.36395 15.6847C5.3302 15.8806 5.35243 16.0818 5.42814 16.2658C5.50384 16.4498 5.63 16.6091 5.79236 16.7258C5.95472 16.8425 6.1468 16.9119 6.34691 16.9262C6.54701 16.9405 6.74716 16.899 6.92474 16.8066L11.0001 14.686C11.1545 14.6051 11.3264 14.5629 11.501 14.5629C11.6755 14.5629 11.8475 14.6051 12.0018 14.686L16.0759 16.8066C16.2535 16.8991 16.4538 16.9406 16.654 16.9264C16.8542 16.9122 17.0464 16.8428 17.2089 16.7261C17.3714 16.6094 17.4976 16.4501 17.5735 16.266C17.6493 16.082 17.6716 15.8807 17.638 15.6847L16.8582 11.1903C16.829 11.0201 16.8419 10.8455 16.8957 10.6814C16.9496 10.5172 17.0428 10.3684 17.1674 10.2477L20.4663 7.06646C20.6098 6.92758 20.7113 6.75174 20.7592 6.5588C20.8072 6.36586 20.7998 6.16348 20.7378 5.97449C20.6758 5.7855 20.5617 5.61741 20.4084 5.4892C20.2551 5.36099 20.0687 5.27775 19.8701 5.24886L15.314 4.59228C15.1413 4.56817 14.9771 4.5025 14.836 4.40102C14.6948 4.29955 14.5809 4.16536 14.5043 4.0102L13.5479 2.09412C13.4377 1.87278 13.3863 1.62729 13.3985 1.38081C13.4107 1.13434 13.4862 0.89502 13.6178 0.685444C13.7494 0.475868 13.9327 0.302952 14.1505 0.183021C14.3683 0.0630897 14.6134 0.000100572 14.8626 0L18.3227 0C20.9068 0 23 2.38958 23 5.33851Z" fill="#666666"/>
</svg>
