<svg width="24" height="24" viewBox="0 0 24 24" fill="none" xmlns="http://www.w3.org/2000/svg">
<path d="M17 9C17 12.87 13.64 16 9.5 16L8.57 17.12L8.02 17.78C7.55 18.34 6.65 18.22 6.34 17.55L5 14.6C3.18 13.32 2 11.29 2 9C2 5.13 5.36 2 9.5 2C12.52 2 15.13 3.67 16.3 6.07C16.75 6.96 17 7.95 17 9Z" stroke="#535763" stroke-width="1.5" stroke-linecap="round" stroke-linejoin="round"/>
<path d="M7 9.00007H12M22 12.8601C22 15.1501 20.82 17.1801 19 18.4601L17.66 21.4101C17.35 22.0801 16.45 22.2101 15.98 21.6401L14.5 19.8601C12.08 19.8601 9.92 18.7901 8.57 17.1201L9.5 16.0001C13.64 16.0001 17 12.8701 17 9.00007C17 7.95007 16.75 6.96007 16.3 6.07007C19.57 6.82007 22 9.58007 22 12.8601Z" stroke="#535763" stroke-width="1.5" stroke-linecap="round" stroke-linejoin="round"/>
</svg>
