<svg width="14" height="18" viewBox="0 0 14 18" fill="none" xmlns="http://www.w3.org/2000/svg">
<path fill-rule="evenodd" clip-rule="evenodd" d="M4.75187 10C4.44787 10.6958 4.09262 11.364 3.69088 12H1V14H2.18053C1.52167 14.7361 0.791172 15.4068 0 16.0011V18H4C4 16.3431 5.34315 15 7 15C8.65685 15 10 16.3431 10 18H14V16.0011C13.2088 15.4068 12.4783 14.7361 11.8195 14H13V12H10.3091C9.90738 11.364 9.55213 10.6958 9.24813 10H10V8H8.53923C8.18777 6.72656 8 5.38521 8 4V0H6V4C6 5.38521 5.81223 6.72656 5.46077 8H4V10H4.75187ZM7 10C6.44772 10 6 10.4477 6 11C6 11.5523 6.44772 12 7 12C7.55228 12 8 11.5523 8 11C8 10.4477 7.55228 10 7 10Z" fill="#01213F"/>
</svg>
