<svg width="20" height="20" viewBox="0 0 20 20" fill="none" xmlns="http://www.w3.org/2000/svg">
<path fill-rule="evenodd" clip-rule="evenodd" d="M6.3246 4.99841L4.81697 2.94255C4.71445 2.80274 4.5207 2.76711 4.37514 2.86129C2.40272 4.13757 1.86053 6.08717 2.65185 7.52437C3.51728 9.09614 4.85204 11.0237 6.8994 13.0711C8.94677 15.1185 10.8744 16.4532 12.4461 17.3187C13.8833 18.11 15.8329 17.5678 17.1092 15.5954C17.2034 15.4498 17.1678 15.2561 17.028 15.1535L14.9721 13.6459C14.6698 13.4242 14.2688 13.3902 13.9335 13.5579L13.1141 13.9676C12.4171 14.3161 11.4617 14.4385 10.5572 13.9732C9.95257 13.6622 9.02062 13.071 7.96006 12.0104C6.89951 10.9499 6.30835 10.0179 5.99727 9.41328C5.53198 8.50885 5.65441 7.55342 6.0029 6.85644L6.41263 6.03699C6.58029 5.70167 6.54631 5.30073 6.3246 4.99841ZM3.28864 1.18215C0.748128 2.82601 -0.55963 5.83829 0.899869 8.48902C1.8524 10.219 3.29923 12.2994 5.48519 14.4853C7.67115 16.6713 9.75152 18.1181 11.4815 19.0706C14.1322 20.5301 17.1445 19.2224 18.7884 16.6819C19.4579 15.647 19.2046 14.2696 18.2107 13.5407L16.1548 12.0331C15.2479 11.368 14.0451 11.266 13.0391 11.769L12.2196 12.1788C11.9824 12.2974 11.708 12.3161 11.4722 12.1948C11.0425 11.9737 10.2811 11.503 9.37428 10.5962C8.46748 9.68943 7.99677 8.928 7.77572 8.49833C7.65439 8.26249 7.67314 7.98809 7.79175 7.75087L8.20148 6.93142C8.70446 5.92545 8.60252 4.72265 7.93741 3.81569L6.42978 1.75982C5.70089 0.765875 4.32346 0.512562 3.28864 1.18215Z" fill="#535763"/>
</svg>
