<svg width="23" height="24" viewBox="0 0 23 24" fill="none" xmlns="http://www.w3.org/2000/svg">
<path d="M11.5 0.5C9.22552 0.5 7.00211 1.17446 5.11095 2.4381C3.21978 3.70174 1.7458 5.49779 0.87539 7.59914C0.00498272 9.70049 -0.222756 12.0128 0.220974 14.2435C0.664704 16.4743 1.75997 18.5234 3.36828 20.1317C4.97658 21.74 7.02568 22.8353 9.25646 23.279C11.4872 23.7228 13.7995 23.495 15.9009 22.6246C18.0022 21.7542 19.7983 20.2802 21.0619 18.3891C22.3255 16.4979 23 14.2745 23 12C23 8.95001 21.7884 6.02494 19.6317 3.86827C17.4751 1.7116 14.55 0.5 11.5 0.5ZM11.5 4.95138C12.307 4.95138 13.0959 5.1907 13.767 5.63906C14.438 6.08743 14.961 6.7247 15.2698 7.4703C15.5787 8.21591 15.6595 9.03635 15.502 9.82787C15.3446 10.6194 14.956 11.3465 14.3853 11.9171C13.8146 12.4878 13.0876 12.8764 12.2961 13.0338C11.5045 13.1913 10.6841 13.1105 9.93849 12.8017C9.19289 12.4928 8.55561 11.9698 8.10725 11.2988C7.65888 10.6278 7.41957 9.83885 7.41957 9.03182C7.41957 7.94962 7.84947 6.91175 8.6147 6.14652C9.37993 5.38129 10.4178 4.95138 11.5 4.95138ZM11.5 20.9028C10.2058 20.9025 8.92737 20.6195 7.75398 20.0736C6.58059 19.5277 5.5406 18.732 4.70675 17.7423C5.14354 16.9082 5.79981 16.2092 6.60475 15.7207C7.4097 15.2322 8.33275 14.9729 9.27431 14.9705C9.3859 14.9712 9.49679 14.9883 9.60339 15.0213C10.2148 15.227 10.8549 15.335 11.5 15.3415C12.1451 15.3354 12.7853 15.2274 13.3966 15.0213C13.5032 14.9883 13.6141 14.9712 13.7257 14.9705C14.6673 14.9729 15.5903 15.2322 16.3953 15.7207C17.2002 16.2092 17.8565 16.9082 18.2933 17.7423C17.4594 18.732 16.4194 19.5277 15.246 20.0736C14.0726 20.6195 12.7942 20.9025 11.5 20.9028Z" fill="#01213F"/>
</svg>
