<svg width="25" height="24" viewBox="0 0 25 24" fill="none" xmlns="http://www.w3.org/2000/svg">
<path fill-rule="evenodd" clip-rule="evenodd" d="M3.50231 10.5081C3.50231 8.51742 4.29309 6.6083 5.70069 5.20069C7.1083 3.79309 9.01742 3.00231 11.0081 3.00231C12.9987 3.00231 14.9078 3.79309 16.3154 5.20069C17.7231 6.6083 18.5138 8.51742 18.5138 10.5081C18.5138 12.4987 17.7231 14.4078 16.3154 15.8154C14.9078 17.223 12.9987 18.0138 11.0081 18.0138C9.01742 18.0138 7.1083 17.223 5.70069 15.8154C4.29309 14.4078 3.50231 12.4987 3.50231 10.5081ZM11.0081 0C9.34305 0 7.70186 0.395663 6.21975 1.15438C4.73764 1.9131 3.45704 3.01316 2.48348 4.36389C1.50993 5.71463 0.871282 7.27738 0.620182 8.92336C0.369082 10.5693 0.512714 12.2514 1.03924 13.831C1.56577 15.4106 2.46012 16.8424 3.64858 18.0086C4.83705 19.1747 6.28562 20.0417 7.87491 20.5382C9.46419 21.0346 11.1487 21.1463 12.7896 20.864C14.4305 20.5817 15.9809 19.9135 17.3129 18.9145C17.3556 18.9713 17.4022 19.025 17.4525 19.0751L21.956 23.5786C22.2391 23.8521 22.6183 24.0034 23.0119 23.9999C23.4055 23.9965 23.782 23.8386 24.0603 23.5603C24.3386 23.282 24.4965 22.9055 24.4999 22.5119C24.5034 22.1183 24.3521 21.7391 24.0786 21.456L19.5751 16.9525C19.525 16.9022 19.4713 16.8556 19.4145 16.8129C20.5854 15.2517 21.2984 13.3953 21.4737 11.4518C21.6489 9.50816 21.2795 7.55417 20.4068 5.80872C19.534 4.06327 18.1925 2.59532 16.5325 1.56937C14.8725 0.543421 12.9595 0 11.0081 0Z" fill="#666666"/>
</svg>
