<svg width="19" height="17" viewBox="0 0 19 17" fill="none" xmlns="http://www.w3.org/2000/svg">
<path fill-rule="evenodd" clip-rule="evenodd" d="M0.214966 6.60703C0.214966 4.36703 0.214966 3.24703 0.650966 2.39103C1.03445 1.63842 1.64635 1.02652 2.39897 0.643031C3.25497 0.207031 4.37497 0.207031 6.61497 0.207031H11.815C14.055 0.207031 15.175 0.207031 16.031 0.643031C16.7836 1.02652 17.3955 1.63842 17.779 2.39103C18.215 3.24703 18.215 4.36703 18.215 6.60703V7.80703C18.215 10.047 18.215 11.167 17.779 12.023C17.3955 12.7756 16.7836 13.3875 16.031 13.771C15.175 14.207 14.055 14.207 11.815 14.207H4.62897C4.36377 14.2071 4.10946 14.3125 3.92197 14.5L1.92197 16.5C1.78211 16.6398 1.60395 16.735 1.41 16.7736C1.21604 16.8122 1.01501 16.7924 0.832311 16.7167C0.649611 16.641 0.493449 16.5129 0.383564 16.3485C0.27368 16.1841 0.215008 15.9908 0.214966 15.793V6.60703ZM6.21497 4.20703C5.94975 4.20703 5.6954 4.31239 5.50786 4.49992C5.32032 4.68746 5.21497 4.94181 5.21497 5.20703C5.21497 5.47225 5.32032 5.7266 5.50786 5.91414C5.6954 6.10167 5.94975 6.20703 6.21497 6.20703H12.215C12.4802 6.20703 12.7345 6.10167 12.9221 5.91414C13.1096 5.7266 13.215 5.47225 13.215 5.20703C13.215 4.94181 13.1096 4.68746 12.9221 4.49992C12.7345 4.31239 12.4802 4.20703 12.215 4.20703H6.21497ZM6.21497 8.20703C5.94975 8.20703 5.6954 8.31239 5.50786 8.49992C5.32032 8.68746 5.21497 8.94181 5.21497 9.20703C5.21497 9.47225 5.32032 9.7266 5.50786 9.91414C5.6954 10.1017 5.94975 10.207 6.21497 10.207H9.21497C9.48018 10.207 9.73454 10.1017 9.92207 9.91414C10.1096 9.7266 10.215 9.47225 10.215 9.20703C10.215 8.94181 10.1096 8.68746 9.92207 8.49992C9.73454 8.31239 9.48018 8.20703 9.21497 8.20703H6.21497Z" fill="#01213F"/>
</svg>
