<svg width="20" height="29" viewBox="0 0 20 29" fill="none" xmlns="http://www.w3.org/2000/svg">
<mask id="mask0_256_3942" style="mask-type:luminance" maskUnits="userSpaceOnUse" x="0" y="0" width="20" height="29">
<path d="M19.785 0.937988H0.214966V28.062H19.785V0.937988Z" fill="white"/>
</mask>
<g mask="url(#mask0_256_3942)">
<path d="M18.929 22.721C19.5203 20.6808 19.771 18.5569 19.671 16.435C19.6307 15.7651 19.4719 15.1075 19.202 14.493C19.0912 14.2344 18.9245 14.0036 18.7139 13.817C18.5033 13.6305 18.254 13.4928 17.984 13.414C17.6907 13.3287 17.3824 13.3085 17.0805 13.3546C16.7786 13.4007 16.4904 13.5121 16.236 13.681C16.176 13.72 16.117 13.762 16.056 13.805L16.023 13.828C15.8617 13.4783 15.6212 13.1709 15.3206 12.9302C15.02 12.6895 14.6675 12.522 14.291 12.441C13.9704 12.3801 13.6398 12.3978 13.3276 12.4926C13.0153 12.5873 12.7307 12.7563 12.498 12.985C12.3699 12.7487 12.1937 12.5418 11.9808 12.3777C11.768 12.2136 11.5231 12.0958 11.262 12.032C10.9924 12.0029 10.7197 12.0277 10.4598 12.105C10.1999 12.1822 9.9579 12.3104 9.74798 12.482C9.73265 12.2534 9.71798 12.0284 9.70398 11.807C9.66898 11.246 9.63498 10.717 9.58298 10.183C9.56298 9.98303 9.54398 9.78303 9.52598 9.58303C9.43698 8.64803 9.34498 7.68303 9.17498 6.74203C9.04474 6.14603 8.80904 5.5781 8.47898 5.06503C8.39446 4.90208 8.27543 4.75951 8.13018 4.64725C7.98494 4.53499 7.81697 4.45575 7.63798 4.41503C7.26612 4.36222 6.88787 4.44877 6.57598 4.65803C6.38306 4.77187 6.21497 4.92328 6.08167 5.10331C5.94837 5.28333 5.85258 5.48829 5.79998 5.70603C5.72534 5.97333 5.6771 6.24731 5.65598 6.52403C5.64398 6.71136 5.63164 6.89903 5.61898 7.08703C5.56998 7.82503 5.51898 8.58703 5.51898 9.34003C5.51898 10.866 5.54598 12.424 5.56898 13.931C5.57831 14.5264 5.58731 15.1237 5.59598 15.723C5.57841 15.7126 5.56139 15.7012 5.54498 15.689C5.51898 15.668 5.49398 15.645 5.46898 15.622C5.43745 15.5907 5.40406 15.5613 5.36898 15.534C4.85182 15.1299 4.25357 14.842 3.61503 14.6902C2.9765 14.5383 2.31271 14.526 1.66898 14.654C1.39454 14.704 1.13688 14.8216 0.919327 14.9962C0.701771 15.1708 0.531178 15.3969 0.422978 15.654C0.315422 15.9238 0.277102 16.2162 0.311512 16.5046C0.345922 16.793 0.451966 17.0681 0.619978 17.305C0.756893 17.4937 0.914174 17.6668 1.08898 17.821C1.18898 17.921 1.28898 18.015 1.38898 18.121C1.55498 18.307 1.72898 18.492 1.89798 18.67C2.33735 19.1129 2.73876 19.592 3.09798 20.102C3.46304 20.6766 3.79427 21.2719 4.08998 21.885C4.25498 22.212 4.42598 22.551 4.60598 22.878L4.64598 22.95C5.07698 23.736 5.52398 24.55 6.01298 25.317C6.25419 25.6799 6.55393 26.0002 6.89998 26.265C7.60229 26.808 8.38415 27.2394 9.21798 27.544C10.0496 27.8653 10.9335 28.0298 11.825 28.029C12.8513 28.0197 13.8675 27.8256 14.825 27.456C15.4945 27.1704 16.1208 26.7927 16.686 26.334C17.8214 25.4186 18.6123 24.1447 18.929 22.721ZM6.60598 12.721C6.59898 12.435 6.58598 12.145 6.57198 11.865C6.54898 11.377 6.52498 10.872 6.53798 10.377C6.57398 8.93203 6.65298 7.52303 6.72598 6.33403C6.76498 5.68903 6.87398 5.52703 7.44298 5.29803C7.63558 5.44298 7.79631 5.626 7.91518 5.83571C8.03405 6.04541 8.10853 6.27732 8.13398 6.51703C8.28559 7.30144 8.39044 8.09417 8.44798 8.89103C8.53198 10.135 8.59398 11.402 8.65398 12.627C8.67998 13.1604 8.70665 13.6937 8.73398 14.227C8.74898 14.516 8.81598 14.827 9.19298 14.91C9.56998 14.993 9.75498 14.697 9.89298 14.395L9.98598 14.195C10.1269 13.8545 10.3042 13.5303 10.515 13.228C10.5809 13.1211 10.6751 13.0344 10.7871 12.9776C10.8992 12.9208 11.0247 12.896 11.15 12.906C11.2753 12.938 11.3893 13.0041 11.4793 13.097C11.5693 13.1898 11.6319 13.3058 11.66 13.432C11.7301 13.6845 11.7677 13.945 11.772 14.207C11.772 14.291 11.782 14.374 11.789 14.457C11.7919 14.5262 11.7885 14.5955 11.779 14.664C11.7586 14.7735 11.7624 14.8861 11.79 14.994C11.856 15.1645 11.9853 15.3028 12.151 15.38C12.2018 15.4014 12.2564 15.4124 12.3115 15.4124C12.3666 15.4124 12.4212 15.4014 12.472 15.38C12.5262 15.3554 12.5749 15.3201 12.6153 15.2763C12.6556 15.2325 12.6868 15.1811 12.707 15.125C12.7381 15.0393 12.7628 14.9514 12.781 14.862C12.7979 14.7795 12.8206 14.6983 12.849 14.619C12.876 14.549 12.902 14.479 12.928 14.409C13.0224 14.1332 13.1395 13.8656 13.278 13.609C13.3118 13.533 13.3604 13.4644 13.4209 13.4073C13.4814 13.3501 13.5526 13.3055 13.6304 13.2761C13.7082 13.2466 13.7911 13.2328 13.8743 13.2356C13.9575 13.2383 14.0393 13.2575 14.115 13.292C14.3463 13.3398 14.5585 13.4542 14.7257 13.621C14.8929 13.7878 15.0077 13.9999 15.056 14.231C15.1054 14.5078 15.1335 14.788 15.14 15.069C15.14 15.156 15.148 15.243 15.154 15.329C15.171 15.596 15.235 15.88 15.583 15.969C15.931 16.058 16.106 15.839 16.252 15.592L16.352 15.415C16.4589 15.2195 16.5788 15.0314 16.711 14.852C16.8018 14.7035 16.9301 14.5815 17.083 14.4981C17.2358 14.4147 17.4079 14.373 17.582 14.377C17.7371 14.4167 17.8788 14.497 17.9925 14.6096C18.1063 14.7223 18.1879 14.8633 18.229 15.018C18.4741 15.6071 18.6188 16.2331 18.657 16.87C18.7149 18.6084 18.4951 20.3449 18.006 22.014C17.7575 22.8716 17.3817 23.6871 16.891 24.433C16.2127 25.3665 15.2275 26.0314 14.108 26.311C13.0193 26.6572 11.8627 26.733 10.7381 26.5318C9.61359 26.3305 8.55502 25.8583 7.65398 25.156C7.44834 25.019 7.26885 24.8462 7.12398 24.646C6.76813 24.1339 6.4387 23.6038 6.13698 23.058C5.67498 22.2 5.22398 21.31 4.75898 20.34C4.13744 18.9726 3.20129 17.7716 2.02698 16.835C1.998 16.813 1.9706 16.7889 1.94498 16.763L1.85198 16.665C1.62298 16.436 1.40698 16.219 1.54098 15.865C1.68498 15.489 2.05798 15.453 2.42798 15.448H2.46498C3.60498 15.448 5.25998 16.182 5.46498 17.588C5.51698 17.957 5.72898 18.168 6.04498 18.168H6.05298C6.36598 18.168 6.57398 17.968 6.65298 17.599C6.68648 17.442 6.70158 17.2816 6.69798 17.121C6.66398 15.348 6.63498 13.99 6.60598 12.725V12.721Z" fill="#FFB522"/>
<path d="M3.62597 2.69504L3.80497 2.91104C4.04597 3.20204 4.28597 3.49104 4.52797 3.77604C4.65249 3.93148 4.79144 4.07479 4.94297 4.20404C4.9982 4.25311 5.0626 4.29075 5.13246 4.31478C5.20232 4.33881 5.27625 4.34875 5.34997 4.34404C5.4015 4.33785 5.45116 4.32096 5.49576 4.29443C5.54037 4.26791 5.57893 4.23235 5.60897 4.19004C5.66378 4.10506 5.69981 4.00935 5.71464 3.90933C5.72947 3.8093 5.72277 3.70726 5.69497 3.61003C5.60149 3.39555 5.46813 3.20076 5.30197 3.03604L5.28197 3.01304C4.91597 2.59604 4.53697 2.17704 4.17197 1.77204L3.75297 1.31204C3.51697 1.05004 3.33797 0.936035 3.15597 0.936035C3.04434 0.949757 2.93686 0.986863 2.84054 1.04493C2.74422 1.103 2.66122 1.18072 2.59697 1.27304C1.98897 1.94604 1.39797 2.65404 0.826973 3.33604L0.385973 3.86304C0.33731 3.91415 0.299264 3.97441 0.274032 4.04032C0.2488 4.10623 0.236884 4.17649 0.238973 4.24704C0.24494 4.30056 0.261656 4.35234 0.288119 4.39925C0.314582 4.44616 0.350246 4.48724 0.392973 4.52004C0.440568 4.55997 0.495916 4.58961 0.555532 4.6071C0.615147 4.62459 0.677738 4.62955 0.739363 4.62165C0.800988 4.61376 0.860311 4.5932 0.913597 4.56125C0.966882 4.52931 1.01298 4.48667 1.04897 4.43604C1.18997 4.28704 1.32697 4.13003 1.45897 3.97803C1.55897 3.86703 1.65297 3.75504 1.75197 3.64604C1.81497 3.57604 1.87797 3.50503 1.94097 3.43203C2.10286 3.23978 2.27511 3.05651 2.45697 2.88304C2.45697 2.92204 2.45697 2.95803 2.45697 2.99203C2.45697 3.11303 2.45697 3.20004 2.45697 3.29204L2.48697 4.37804C2.51897 5.54204 2.55197 6.74604 2.59697 7.93004C2.6136 8.26577 2.66658 8.59872 2.75497 8.92304C2.78353 9.03408 2.84939 9.13194 2.94151 9.20022C3.03363 9.26849 3.14642 9.30302 3.26097 9.29803H3.31397C3.43679 9.29373 3.55372 9.24435 3.64244 9.15932C3.73116 9.07429 3.78546 8.95956 3.79497 8.83704C3.82422 8.63846 3.83427 8.43753 3.82497 8.23704C3.80197 7.85104 3.77497 7.46504 3.74897 7.08004C3.70397 6.44204 3.65797 5.78004 3.63297 5.13304C3.61097 4.54804 3.61597 3.97104 3.62197 3.36003C3.62297 3.13603 3.62497 2.91804 3.62597 2.69504Z" fill="#FFB522"/>
</g>
</svg>
