<svg width="24" height="24" viewBox="0 0 24 24" fill="none" xmlns="http://www.w3.org/2000/svg">
<path d="M3 9.11011V14.8801C3 17.0001 3 17.0001 5 18.3501L10.5 21.5301C11.33 22.0101 12.68 22.0101 13.5 21.5301L19 18.3501C21 17.0001 21 17.0001 21 14.8901V9.11011C21 7.00011 21 7.00011 19 5.65011L13.5 2.47011C12.68 1.99011 11.33 1.99011 10.5 2.47011L5 5.65011C3 7.00011 3 7.00011 3 9.11011Z" stroke="#535763" stroke-width="2" stroke-linecap="round" stroke-linejoin="round"/>
<path d="M12 15C12.7956 15 13.5587 14.6839 14.1213 14.1213C14.6839 13.5587 15 12.7956 15 12C15 11.2044 14.6839 10.4413 14.1213 9.87868C13.5587 9.31607 12.7956 9 12 9C11.2044 9 10.4413 9.31607 9.87868 9.87868C9.31607 10.4413 9 11.2044 9 12C9 12.7956 9.31607 13.5587 9.87868 14.1213C10.4413 14.6839 11.2044 15 12 15Z" stroke="#535763" stroke-width="2" stroke-linecap="round" stroke-linejoin="round"/>
</svg>
