<svg width="21" height="18" viewBox="0 0 21 18" fill="none" xmlns="http://www.w3.org/2000/svg">
<path fill-rule="evenodd" clip-rule="evenodd" d="M7.00008 0C4.58112 0 2.56337 1.71776 2.1001 4H6.28881C6.04141 4.17045 5.80596 4.36571 5.5859 4.58576C3.87544 6.29622 3.66331 8.93763 4.94952 10.879L9.7454 6.08311C9.6876 6.21839 9.62954 6.35858 9.57152 6.50361C8.85192 8.30262 8.13945 10.849 8.0181 14.0432C5.00239 14.3099 2.33632 15.7936 0.51416 18H17.4855C15.671 15.8029 13.0196 14.3224 10.0195 14.0466C10.139 11.1453 10.7872 8.84948 11.4285 7.24639C11.7836 6.35853 12.1366 5.68339 12.396 5.23651C12.3975 5.23398 12.399 5.23146 12.4004 5.22895L18.0505 10.879C19.3367 8.93763 19.1246 6.29622 17.4141 4.58576C17.194 4.36571 16.9586 4.17045 16.7112 4H20.8999C20.4366 1.71776 18.4189 0 15.9999 0C14.0209 0 12.3104 1.14978 11.5 2.81778C10.6896 1.14978 8.97912 0 7.00008 0Z" fill="#01213F"/>
</svg>
